
<svg xmlns="http://www.w3.org/2000/svg" version="1.1" xmlns:xlink="http://www.w3.org/1999/xlink" preserveAspectRatio="none" x="0px" y="0px" width="25px" height="25px" viewBox="0 0 25 25">
<defs/>

<g id="MergedLayer_2">
<g>
<g>
<g>
<path fill="#000000" stroke="none" d="
M 49.55 -8.05
Q 47.031640625 -9.2142578125 44.4 -9.2
L 44.4 -2.55
Q 47.3 -2.51328125 50.2 -1.15 50.35 -1.05 50.5 -1
L 50.5 -7.65
Q 50.0265625 -7.82734375 49.55 -8.05
M 44.4 -14.9
Q 47.031640625 -14.9142578125 49.55 -13.75 50.0265625 -13.52734375 50.5 -13.35
L 50.5 -19.1
Q 50.05 -19.3 49.6 -19.5 47.0521484375 -20.677734375 44.4 -20.6
L 44.4 -14.9
M 38 -7.35
L 36.5 -6.5
Q 34.866796875 -5.6833984375 31.7 -7.1
L 31.7 -0.2
Q 34.85 0.50625 38 -0.9
L 38 -7.35
M 25.35 -9.1
Q 23.218359375 -8.9998046875 20.95 -7.9 19.958203125 -7.4291015625 18.95 -7.15
L 18.95 0.05
Q 19.782421875 -0.210546875 20.6 -0.65 22.9310546875 -1.9509765625 25.35 -1.95
L 25.35 -9.1
M 31.7 -18.55
L 31.7 -12.8
Q 34.866796875 -11.3833984375 36.5 -12.2
L 38 -13.05 38 -18.7 36.55 -17.9
Q 34.9041015625 -17.076953125 31.7 -18.55
M 18.95 -12.85
Q 15.82734375 -11.9966796875 12.55 -13
L 12.55 -7.3
Q 15.82734375 -6.29453125 18.95 -7.15
L 18.95 -12.85
M 18.95 -18.5
L 18.95 -12.85
Q 19.9580078125 -13.1291015625 20.95 -13.6 23.218359375 -14.6998046875 25.35 -14.8
L 25.35 -20.45
Q 23.241796875 -20.3369140625 21 -19.25 19.979296875 -18.7634765625 18.95 -18.5
M 30.2 -13.55
Q 27.8705078125 -14.87734375 25.35 -14.8
L 25.35 -9.1
Q 27.8705078125 -9.17734375 30.2 -7.85 30.9888671875 -7.4189453125 31.7 -7.1
L 31.7 -12.8
Q 30.9888671875 -13.1189453125 30.2 -13.55
M 38.5 -13.3
L 38 -13.05 38 -7.35 38.5 -7.6
Q 41.5177734375 -9.110546875 44.4 -9.2
L 44.4 -14.9
Q 41.5177734375 -14.810546875 38.5 -13.3 Z"/>
</g>
</g>
</g>
</g>
</svg>
