
<svg xmlns="http://www.w3.org/2000/svg" version="1.1" xmlns:xlink="http://www.w3.org/1999/xlink" preserveAspectRatio="none" x="0px" y="0px" width="25px" height="25px" viewBox="0 0 25 25">
<defs/>

<g id="MergedLayer_2">
<g>
<g>
<g>
<path fill="#000000" stroke="none" d="
M 50.5 -7.55
Q 47.5216796875 -6.3806640625 44.4 -6.95
L 44.4 0
Q 47.5857421875 0.8693359375 50.5 -0.5
L 50.5 -7.55
M 44.4 -12.65
Q 47.5216796875 -12.0806640625 50.5 -13.25
L 50.5 -18.95
Q 47.5248046875 -17.8056640625 44.4 -18.4
L 44.4 -12.65
M 38 -9
Q 34.9298828125 -9.5322265625 31.7 -8.35
L 31.7 -1.8
Q 34.85 -2.8421875 38 -2.3
L 38 -9
M 31.7 -14.05
Q 34.9298828125 -15.2349609375 38 -14.7
L 38 -20.4
Q 34.9224609375 -20.92265625 31.7 -19.7
L 31.7 -14.05
M 18.95 -8.9
L 18.95 -1.65
Q 19.919140625 -1.3908203125 20.9 -0.95 23.1427734375 0.073828125 25.35 0.05
L 25.35 -6.35
Q 23.7830078125 -6.684375 21.65 -7.85 20.3306640625 -8.6017578125 18.95 -8.9
M 18.95 -14.6
Q 15.8994140625 -15.25 12.55 -13.7
L 12.55 -8
Q 15.899609375 -9.54921875 18.95 -8.9
L 18.95 -14.6
M 18.95 -20.25
L 18.95 -14.6
Q 20.3306640625 -14.3017578125 21.65 -13.55 23.7830078125 -12.384375 25.35 -12.05
L 25.35 -17.7
Q 23.799609375 -18.0390625 21.7 -19.2 20.3591796875 -19.9482421875 18.95 -20.25
M 38 -14.7
L 38 -9
Q 39.5197265625 -8.734375 41 -8.05 42.7208984375 -7.2458984375 44.4 -6.95
L 44.4 -12.65
Q 42.7208984375 -12.9458984375 41 -13.75 39.5197265625 -14.434375 38 -14.7
M 27.95 -6.5
L 29.95 -7.6
Q 30.830859375 -8.041015625 31.7 -8.35
L 31.7 -14.05
Q 30.830859375 -13.741015625 29.95 -13.3
L 27.95 -12.2
Q 26.9421875 -11.69609375 25.35 -12.05
L 25.35 -6.35
Q 26.9421875 -5.99609375 27.95 -6.5 Z"/>
</g>
</g>
</g>
</g>
</svg>
