
<svg xmlns="http://www.w3.org/2000/svg" version="1.1" xmlns:xlink="http://www.w3.org/1999/xlink" preserveAspectRatio="none" x="0px" y="0px" width="25px" height="25px" viewBox="0 0 25 25">
<defs/>

<g id="MergedLayer_2">
<g>
<g>
<g>
<path fill="#000000" stroke="none" d="
M 50.5 -8.85
Q 48.7740234375 -8.469140625 47 -7.6
L 45 -6.5
Q 44.722265625 -6.3611328125 44.4 -6.3
L 44.4 -0.25
Q 45.704296875 -0.509375 47 -1.15 48.75 -1.95 50.5 -2.3
L 50.5 -8.85
M 47 -13.3
Q 48.7736328125 -14.1876953125 50.5 -14.6
L 50.5 -20.3
Q 48.8 -19.9 47.05 -19
L 47.05 -19.05 45.05 -17.95
Q 44.75078125 -17.800390625 44.4 -17.75
L 44.4 -12
Q 44.722265625 -12.0611328125 45 -12.2
L 47 -13.3
M 38 -8.25
Q 35.0041015625 -9.6310546875 31.7 -8.75
L 31.7 -1.7
Q 34.7763671875 -2.4716796875 38 -1
L 38 -8.25
M 31.7 -14.45
Q 35.0041015625 -15.33359375 38 -13.95
L 38 -19.65
Q 35.00390625 -21.030078125 31.7 -20.1
L 31.7 -14.45
M 19.15 -8.05
Q 19.0501953125 -8.09609375 18.95 -8.15
L 18.95 -1.4
Q 19.35 -1.23125 19.75 -1.05 22.66015625 0.5505859375 25.35 0.4
L 25.35 -6.8
Q 22.3201171875 -6.5685546875 19.15 -8.05
M 18.95 -13.85
Q 15.8361328125 -15.2171875 12.55 -14.75
L 12.55 -9.05
Q 15.8361328125 -9.521484375 18.95 -8.15
L 18.95 -13.85
M 19.15 -19.4
Q 19.0501953125 -19.4453125 18.95 -19.5
L 18.95 -13.85
Q 19.0501953125 -13.79609375 19.15 -13.75 22.3201171875 -12.2685546875 25.35 -12.5
L 25.35 -18.15
Q 22.3111328125 -17.9228515625 19.15 -19.4
M 29.45 -13.6
Q 27.433203125 -12.642578125 25.35 -12.5
L 25.35 -6.8
Q 27.433203125 -6.942578125 29.45 -7.9 30.5923828125 -8.45390625 31.7 -8.75
L 31.7 -14.45
Q 30.5923828125 -14.15390625 29.45 -13.6
M 38.7 -13.55
Q 38.3521484375 -13.7482421875 38 -13.95
L 38 -8.25
Q 38.3521484375 -8.0482421875 38.7 -7.85 42.402734375 -5.8263671875 44.4 -6.3
L 44.4 -12
Q 42.402734375 -11.5263671875 38.7 -13.55 Z"/>
</g>
</g>
</g>
</g>
</svg>
