
<svg xmlns="http://www.w3.org/2000/svg" version="1.1" xmlns:xlink="http://www.w3.org/1999/xlink" preserveAspectRatio="none" x="0px" y="0px" width="25px" height="25px" viewBox="0 0 25 25">
<defs/>

<g id="MergedLayer_2">
<g>
<g>
<g>
<path fill="#000000" stroke="none" d="
M 44.6 -7.85
Q 44.5001953125 -7.9068359375 44.4 -7.95
L 44.4 -0.85
Q 47.49296875 0.3939453125 50.5 -0.3
L 50.5 -6.35
Q 48.4923828125 -5.7228515625 44.6 -7.85
M 44.4 -13.65
Q 44.5001953125 -13.6068359375 44.6 -13.55 48.4923828125 -11.4228515625 50.5 -12.05
L 50.5 -17.75
Q 48.5 -17.2 44.65 -19.3 44.525390625 -19.36953125 44.4 -19.45
L 44.4 -13.65
M 38 -8.85
Q 36.69921875 -8.5541015625 35.35 -7.9 33.5515625 -7.04609375 31.7 -6.85
L 31.7 0.35
Q 33.3943359375 0.1673828125 35 -0.7 36.4822265625 -1.52734375 38 -1.85
L 38 -8.85
M 35.35 -13.6
Q 36.69921875 -14.2541015625 38 -14.55
L 38 -20.25
Q 36.7232421875 -19.9416015625 35.4 -19.3 33.5701171875 -18.4400390625 31.7 -18.25
L 31.7 -12.55
Q 33.5515625 -12.74609375 35.35 -13.6
M 18.95 -9.1
L 18.95 -2.4
Q 22.1576171875 -2.6279296875 25.35 -1.2
L 25.35 -7.95
Q 25.2001953125 -7.9798828125 25.05 -8.05 22.0802734375 -9.4228515625 18.95 -9.1
M 18.95 -20.45
L 18.95 -14.8
Q 22.0787109375 -15.1236328125 25.05 -13.75 25.2001953125 -13.6798828125 25.35 -13.65
L 25.35 -19.3
Q 25.2251953125 -19.3421875 25.1 -19.4 22.08828125 -20.7791015625 18.95 -20.45
M 14 -13.3
L 12.55 -12.5 12.55 -6.8 14 -7.6
Q 16.5232421875 -8.846875 18.95 -9.1
L 18.95 -14.8
Q 16.5224609375 -14.5625 14 -13.3
M 25.35 -7.95
Q 28.59921875 -6.479296875 31.7 -6.85
L 31.7 -12.55
Q 28.59921875 -12.179296875 25.35 -13.65
L 25.35 -7.95
M 38 -14.55
L 38 -8.85
Q 41.361328125 -9.6072265625 44.4 -7.95
L 44.4 -13.65
Q 41.361328125 -15.3072265625 38 -14.55 Z"/>
</g>
</g>
</g>
</g>
</svg>
