
<svg xmlns="http://www.w3.org/2000/svg" version="1.1" xmlns:xlink="http://www.w3.org/1999/xlink" preserveAspectRatio="none" x="0px" y="0px" width="25px" height="25px" viewBox="0 0 25 25">
<defs/>

<g id="MergedLayer_2">
<g>
<g>
<g>
<path fill="#000000" stroke="none" d="
M 50.25 -7.9
Q 47.391796875 -6.54296875 44.4 -6.8
L 44.4 0.25
Q 47.260546875 0.6759765625 49.9 -0.75 50.2 -0.9 50.5 -1.05
L 50.5 -8.05
Q 50.375390625 -7.9607421875 50.25 -7.9
M 44.4 -12.5
Q 47.391796875 -12.24296875 50.25 -13.6 50.375390625 -13.6607421875 50.5 -13.75
L 50.5 -19.45
Q 50.4 -19.4 50.3 -19.35 47.4177734375 -17.981640625 44.4 -18.25
L 44.4 -12.5
M 38 -8.8
Q 34.93125 -9.6044921875 31.7 -8.7
L 31.7 -2.1
Q 34.85 -2.865625 38 -2.05
L 38 -8.8
M 31.7 -14.4
Q 34.93125 -15.30234375 38 -14.5
L 38 -20.2
Q 34.9236328125 -20.991796875 31.7 -20.05
L 31.7 -14.4
M 18.95 -1.35
Q 19.4232421875 -1.1611328125 19.9 -0.95 22.6431640625 0.316015625 25.35 0
L 25.35 -6.2
Q 23.497265625 -6.2666015625 20.6 -7.85 19.78671875 -8.3134765625 18.95 -8.6
L 18.95 -1.35
M 18.95 -14.3
Q 15.904296875 -15.3611328125 12.55 -14.15
L 12.55 -8.45
Q 15.9044921875 -9.658203125 18.95 -8.6
L 18.95 -14.3
M 18.95 -19.95
L 18.95 -14.3
Q 19.78671875 -14.01328125 20.6 -13.55 23.497265625 -11.9666015625 25.35 -11.9
L 25.35 -17.55
Q 23.4958984375 -17.635546875 20.6 -19.2 19.787109375 -19.65859375 18.95 -19.95
M 26.9 -12.2
Q 26.2474609375 -11.873828125 25.35 -11.9
L 25.35 -6.2
Q 26.2474609375 -6.173828125 26.9 -6.5
L 28.9 -7.6
Q 30.3150390625 -8.308203125 31.7 -8.7
L 31.7 -14.4
Q 30.3150390625 -14.008203125 28.9 -13.3
L 26.9 -12.2
M 39.95 -13.75
Q 38.9833984375 -14.196875 38 -14.5
L 38 -8.8
Q 38.9833984375 -8.496875 39.95 -8.05 42.2107421875 -6.9935546875 44.4 -6.8
L 44.4 -12.5
Q 42.2107421875 -12.6935546875 39.95 -13.75 Z"/>
</g>
</g>
</g>
</g>
</svg>
