
<svg xmlns="http://www.w3.org/2000/svg" version="1.1" xmlns:xlink="http://www.w3.org/1999/xlink" preserveAspectRatio="none" x="0px" y="0px" width="25px" height="25px" viewBox="0 0 25 25">
<defs/>

<g id="MergedLayer_2">
<g>
<g>
<g>
<path fill="#000000" stroke="none" d="
M 50.5 -9.15
Q 47.7380859375 -9.030859375 44.85 -7.6
L 44.4 -7.35 44.4 -0.95
Q 44.6251953125 -1.036328125 44.85 -1.15 47.7 -2.5 50.5 -2.5
L 50.5 -9.15
M 44.9 -19
L 44.9 -19.05 44.4 -18.8 44.4 -13.05 44.85 -13.3
Q 47.737109375 -14.7451171875 50.5 -14.85
L 50.5 -20.6
Q 47.75 -20.45 44.9 -19
M 38 -7.15
Q 37.3111328125 -7.433984375 36.55 -7.85 34.2205078125 -9.17734375 31.7 -9.1
L 31.7 -2
Q 33.7435546875 -1.96171875 35.85 -1 36.9279296875 -0.5025390625 38 -0.25
L 38 -7.15
M 36.55 -13.55
Q 37.3111328125 -13.133984375 38 -12.85
L 38 -18.55
Q 37.33359375 -18.8490234375 36.6 -19.25 34.2474609375 -20.5904296875 31.7 -20.5
L 31.7 -14.8
Q 34.2205078125 -14.87734375 36.55 -13.55
M 18.95 -7.3
L 18.95 -0.35
Q 22.3015625 1.012890625 25.35 0
L 25.35 -7.2
Q 22.22734375 -6.296875 18.95 -7.3
M 18.95 -18.6
L 18.95 -13
Q 22.22734375 -11.996875 25.35 -12.9
L 25.35 -18.5
Q 22.2169921875 -17.6412109375 18.95 -18.6
M 18.95 -13
Q 17.981640625 -13.2912109375 17 -13.75 14.8173828125 -14.758984375 12.55 -14.85
L 12.55 -9.15
Q 14.817578125 -9.058984375 17 -8.05 17.981640625 -7.5912109375 18.95 -7.3
L 18.95 -13
M 38 -12.85
L 38 -7.15
Q 41.2041015625 -5.676953125 42.85 -6.5
L 44.4 -7.35 44.4 -13.05 42.85 -12.2
Q 41.2041015625 -11.376953125 38 -12.85
M 27.3 -13.6
Q 26.3328125 -13.1408203125 25.35 -12.9
L 25.35 -7.2
Q 26.3328125 -7.4408203125 27.3 -7.9 29.568359375 -8.9998046875 31.7 -9.1
L 31.7 -14.8
Q 29.568359375 -14.6998046875 27.3 -13.6 Z"/>
</g>
</g>
</g>
</g>
</svg>
