
<svg xmlns="http://www.w3.org/2000/svg" version="1.1" xmlns:xlink="http://www.w3.org/1999/xlink" preserveAspectRatio="none" x="0px" y="0px" width="25px" height="25px" viewBox="0 0 25 25">
<defs/>

<g id="MergedLayer_2">
<g>
<g>
<g>
<path fill="#000000" stroke="none" d="
M 50.5 -7.55
Q 50.205859375 -7.6828125 49.9 -7.85 47.271484375 -9.34765625 44.4 -9.05
L 44.4 -2
Q 46.7578125 -2.16484375 49.2 -1.05 49.85 -0.75 50.5 -0.55
L 50.5 -7.55
M 50.5 -19
Q 50.25 -19.15 49.95 -19.3 47.2986328125 -20.8107421875 44.4 -20.45
L 44.4 -14.75
Q 47.271484375 -15.04765625 49.9 -13.55 50.205859375 -13.3828125 50.5 -13.25
L 50.5 -19
M 38 -7
Q 34.92421875 -6.348828125 31.7 -7.5
L 31.7 -0.75
Q 34.9845703125 0.866015625 38 0.15
L 38 -7
M 31.7 -13.2
Q 34.92421875 -12.048828125 38 -12.7
L 38 -18.4
Q 34.92421875 -17.7478515625 31.7 -18.9
L 31.7 -13.2
M 19.3 -7.6
L 18.95 -7.4 18.95 -0.9
Q 19.125 -0.963671875 19.3 -1.05 22.325 -2.4720703125 25.35 -2.45
L 25.35 -9.15
Q 22.39765625 -9.1365234375 19.3 -7.6
M 17.3 -6.5
L 18.95 -7.4 18.95 -13.1 17.3 -12.2
Q 15.6798828125 -11.3900390625 12.55 -12.8
L 12.55 -7.1
Q 15.6798828125 -5.68984375 17.3 -6.5
M 19.3 -18.9
L 19.3 -18.95 18.95 -18.75 18.95 -13.1 19.3 -13.3
Q 22.396484375 -14.8498046875 25.35 -14.9
L 25.35 -20.55
Q 22.3962890625 -20.4748046875 19.3 -18.9
M 38 -12.7
L 38 -7
Q 39.3392578125 -7.277734375 40.65 -7.9 42.57421875 -8.8330078125 44.4 -9.05
L 44.4 -14.75
Q 42.57421875 -14.5330078125 40.65 -13.6 39.3392578125 -12.977734375 38 -12.7
M 30.35 -13.75
Q 27.9033203125 -14.8810546875 25.35 -14.9
L 25.35 -9.15
Q 27.904296875 -9.18046875 30.35 -8.05 31.028125 -7.7330078125 31.7 -7.5
L 31.7 -13.2
Q 31.028125 -13.4330078125 30.35 -13.75 Z"/>
</g>
</g>
</g>
</g>
</svg>
