
<svg xmlns="http://www.w3.org/2000/svg" version="1.1" xmlns:xlink="http://www.w3.org/1999/xlink" preserveAspectRatio="none" x="0px" y="0px" width="25px" height="25px" viewBox="0 0 25 25">
<defs/>

<g id="MergedLayer_2">
<g>
<g>
<g>
<path fill="#000000" stroke="none" d="
M 50.5 -6.8
Q 47.5181640625 -6.5486328125 44.4 -7.95
L 44.4 -1.35
Q 44.625 -1.25390625 44.85 -1.15 47.8 0.5 50.5 0.35
L 50.5 -6.8
M 50.5 -18.25
Q 47.521484375 -18.005859375 44.4 -19.45
L 44.4 -13.65
Q 47.5181640625 -12.2486328125 50.5 -12.5
L 50.5 -18.25
M 38 -9.1
Q 35.6205078125 -8.8365234375 33.15 -7.6
L 31.7 -6.8 31.7 -0.5
Q 32.4263671875 -0.7341796875 33.15 -1.1 35.575 -2.2400390625 38 -2.45
L 38 -9.1
M 33.15 -18.95
L 33.15 -19 31.7 -18.2 31.7 -12.5 33.15 -13.3
Q 35.6205078125 -14.5365234375 38 -14.8
L 38 -20.5
Q 35.61171875 -20.212890625 33.15 -18.95
M 18.95 -9
L 18.95 -1.85
Q 21.5001953125 -2.159765625 24.15 -0.95 24.7509765625 -0.67265625 25.35 -0.5
L 25.35 -7.6
Q 25.1041015625 -7.7111328125 24.85 -7.85 22.0388671875 -9.4515625 18.95 -9
M 18.95 -20.3
L 18.95 -14.7
Q 22.0388671875 -15.1515625 24.85 -13.55 25.1041015625 -13.4111328125 25.35 -13.3
L 25.35 -18.95
Q 25.1283203125 -19.0751953125 24.9 -19.2 22.0759765625 -20.808984375 18.95 -20.3
M 18.95 -14.7
Q 17.3140625 -14.4310546875 15.6 -13.6 14.0935546875 -12.8849609375 12.55 -12.65
L 12.55 -6.95
Q 14.0935546875 -7.184765625 15.6 -7.9 17.3140625 -8.7310546875 18.95 -9
L 18.95 -14.7
M 38 -14.8
L 38 -9.1
Q 41.18125 -9.4455078125 44.2 -8.05 44.3 -8.0033203125 44.4 -7.95
L 44.4 -13.65
Q 44.3 -13.7033203125 44.2 -13.75 41.18125 -15.1455078125 38 -14.8
M 31.15 -6.5
L 31.7 -6.8 31.7 -12.5 31.15 -12.2
Q 29.2681640625 -11.2591796875 25.35 -13.3
L 25.35 -7.6
Q 29.2681640625 -5.5591796875 31.15 -6.5 Z"/>
</g>
</g>
</g>
</g>
</svg>
