
<svg xmlns="http://www.w3.org/2000/svg" version="1.1" xmlns:xlink="http://www.w3.org/1999/xlink" preserveAspectRatio="none" x="0px" y="0px" width="25px" height="25px" viewBox="0 0 25 25">
<defs/>

<g id="MergedLayer_2">
<g>
<g>
<g>
<path fill="#000000" stroke="none" d="
M 46.75 -7.85
Q 45.5984375 -8.5060546875 44.4 -8.85
L 44.4 -1.65
Q 45.2201171875 -1.42890625 46.05 -1.05 48.25 -0.05 50.5 0
L 50.5 -6.35
Q 48.9171875 -6.665625 46.75 -7.85
M 44.4 -14.55
Q 45.5984375 -14.2060546875 46.75 -13.55 48.9171875 -12.365625 50.5 -12.05
L 50.5 -17.8
Q 48.95 -18.15 46.8 -19.3 45.6244140625 -19.9697265625 44.4 -20.3
L 44.4 -14.55
M 38 -8.15
Q 37.7509765625 -8.0216796875 37.5 -7.9 34.665625 -6.554296875 31.7 -6.8
L 31.7 0.3
Q 34.5419921875 0.708984375 37.15 -0.7 37.5736328125 -0.94140625 38 -1.15
L 38 -8.15
M 37.5 -13.6
Q 37.7509765625 -13.7216796875 38 -13.85
L 38 -19.55
Q 37.77578125 -19.41171875 37.55 -19.3 34.674609375 -17.9486328125 31.7 -18.2
L 31.7 -12.5
Q 34.665625 -12.254296875 37.5 -13.6
M 18.95 -8.7
L 18.95 -2.05
Q 22.1576171875 -2.834375 25.35 -2
L 25.35 -8.75
Q 22.2353515625 -9.61015625 18.95 -8.7
M 18.95 -20
L 18.95 -14.4
Q 22.233984375 -15.3169921875 25.35 -14.45
L 25.35 -20.1
Q 22.2169921875 -20.9568359375 18.95 -20
M 18.95 -14.4
Q 17.5650390625 -14.008203125 16.15 -13.3
L 14.15 -12.2
Q 13.4794921875 -11.8646484375 12.55 -11.9
L 12.55 -6.2
Q 13.4794921875 -6.1646484375 14.15 -6.5
L 16.15 -7.6
Q 17.565234375 -8.2884765625 18.95 -8.7
L 18.95 -14.4
M 38 -13.85
L 38 -8.15
Q 41.351171875 -9.597265625 44.4 -8.85
L 44.4 -14.55
Q 41.351171875 -15.297265625 38 -13.85
M 27.2 -13.75
Q 26.2826171875 -14.1740234375 25.35 -14.45
L 25.35 -8.75
Q 26.2828125 -8.4740234375 27.2 -8.05 29.4865234375 -6.9814453125 31.7 -6.8
L 31.7 -12.5
Q 29.4865234375 -12.6814453125 27.2 -13.75 Z"/>
</g>
</g>
</g>
</g>
</svg>
