
<svg xmlns="http://www.w3.org/2000/svg" version="1.1" xmlns:xlink="http://www.w3.org/1999/xlink" preserveAspectRatio="none" x="0px" y="0px" width="25px" height="25px" viewBox="0 0 25 25">
<defs/>

<g id="MergedLayer_2">
<g>
<g>
<g>
<path fill="#000000" stroke="none" d="
M 44.6 -0.75
Q 47.5 -2.35 50.5 -1.95
L 50.5 -9.05
Q 47.835546875 -9.2990234375 44.95 -7.9 44.6755859375 -7.7697265625 44.4 -7.65
L 44.4 -0.65
Q 44.5001953125 -0.694921875 44.6 -0.75
M 44.4 -13.35
Q 44.6755859375 -13.4697265625 44.95 -13.6 47.835546875 -14.9990234375 50.5 -14.75
L 50.5 -20.5
Q 47.85 -20.75 45 -19.35 44.7009765625 -19.205078125 44.4 -19.1
L 44.4 -13.35
M 38 -6.95
Q 36.3453125 -7.2578125 34.65 -8.05 33.1943359375 -8.7228515625 31.7 -9
L 31.7 -2.25
Q 33.4953125 -1.92578125 35.3 -1.1 36.673046875 -0.337109375 38 0
L 38 -6.95
M 25.35 -8.35
Q 24.4810546875 -8.019140625 23.6 -7.6
L 21.6 -6.5
Q 20.5763671875 -5.9880859375 18.95 -6.35
L 18.95 0.1
Q 21.2953125 0.089453125 23.6 -1.05 24.4740234375 -1.464453125 25.35 -1.75
L 25.35 -8.35
M 34.65 -13.75
Q 36.3453125 -12.9578125 38 -12.65
L 38 -18.4
Q 36.36953125 -18.669921875 34.7 -19.45 33.2177734375 -20.1212890625 31.7 -20.4
L 31.7 -14.7
Q 33.194140625 -14.423046875 34.65 -13.75
M 18.95 -17.7
L 18.95 -12.05
Q 20.5763671875 -11.6880859375 21.6 -12.2
L 23.6 -13.3
Q 24.4810546875 -13.741015625 25.35 -14.05
L 25.35 -19.65
Q 24.505078125 -19.338671875 23.65 -18.9
L 23.65 -18.95 21.6 -17.85
Q 20.5763671875 -17.3380859375 18.95 -17.7
M 15.3 -13.55
Q 13.9568359375 -14.315234375 12.55 -14.65
L 12.55 -8.9
Q 13.956640625 -8.6154296875 15.3 -7.85 17.3990234375 -6.702734375 18.95 -6.35
L 18.95 -12.05
Q 17.3990234375 -12.402734375 15.3 -13.55
M 31.7 -14.7
Q 28.60625 -15.2462890625 25.35 -14.05
L 25.35 -8.35
Q 28.6076171875 -9.5404296875 31.7 -9
L 31.7 -14.7
M 38 -12.65
L 38 -6.95
Q 41.2791015625 -6.346484375 44.4 -7.65
L 44.4 -13.35
Q 41.2791015625 -12.046484375 38 -12.65 Z"/>
</g>
</g>
</g>
</g>
</svg>
