
<svg xmlns="http://www.w3.org/2000/svg" version="1.1" xmlns:xlink="http://www.w3.org/1999/xlink" preserveAspectRatio="none" x="0px" y="0px" width="25px" height="25px" viewBox="0 0 25 25">
<defs/>

<g id="MergedLayer_2">
<g>
<g>
<g>
<path fill="#000000" stroke="none" d="
M 50.5 -8.85
Q 47.52734375 -9.567578125 44.4 -8.7
L 44.4 -2.15
Q 47.4619140625 -2.9095703125 50.5 -2.15
L 50.5 -8.85
M 44.4 -14.4
Q 47.52734375 -15.2640625 50.5 -14.55
L 50.5 -20.3
Q 47.5236328125 -21.000390625 44.4 -20.1
L 44.4 -14.4
M 38 -6.2
Q 36.16953125 -6.3091796875 33.35 -7.85 32.53671875 -8.3134765625 31.7 -8.6
L 31.7 -1.4
Q 32.1734375 -1.2123046875 32.65 -1 35.342578125 0.2427734375 38 -0.05
L 38 -6.2
M 25.35 -8.45
Q 24.73046875 -8.2056640625 24.1 -7.9 21.576953125 -6.7021484375 18.95 -6.8
L 18.95 0.4
Q 21.4416015625 0.5970703125 23.75 -0.65 24.544921875 -1.09375 25.35 -1.4
L 25.35 -8.45
M 31.7 -14.3
Q 32.53671875 -14.01328125 33.35 -13.55 36.16953125 -12.0091796875 38 -11.9
L 38 -17.6
Q 36.18125 -17.730078125 33.4 -19.25 32.5623046875 -19.717578125 31.7 -20
L 31.7 -14.3
M 18.95 -18.1
L 18.95 -12.5
Q 21.576953125 -12.4021484375 24.1 -13.6 24.7302734375 -13.9056640625 25.35 -14.15
L 25.35 -19.8
Q 24.755078125 -19.543359375 24.15 -19.25 21.589453125 -18.046484375 18.95 -18.1
M 13.8 -13.75
Q 13.178515625 -14.0373046875 12.55 -14.25
L 12.55 -8.55
Q 13.178515625 -8.3373046875 13.8 -8.05 16.4232421875 -6.82421875 18.95 -6.8
L 18.95 -12.5
Q 16.4232421875 -12.52421875 13.8 -13.75
M 25.35 -8.45
Q 28.676953125 -9.650390625 31.7 -8.6
L 31.7 -14.3
Q 28.676953125 -15.3494140625 25.35 -14.15
L 25.35 -8.45
M 38 -6.2
Q 38.961328125 -6.1556640625 39.65 -6.5
L 41.65 -7.6
Q 43.03984375 -8.2755859375 44.4 -8.7
L 44.4 -14.4
Q 43.03984375 -13.9755859375 41.65 -13.3
L 39.65 -12.2
Q 38.961328125 -11.8556640625 38 -11.9
L 38 -6.2 Z"/>
</g>
</g>
</g>
</g>
</svg>
