
<svg xmlns="http://www.w3.org/2000/svg" version="1.1" xmlns:xlink="http://www.w3.org/1999/xlink" preserveAspectRatio="none" x="0px" y="0px" width="25px" height="25px" viewBox="0 0 25 25">
<defs/>

<g id="MergedLayer_2">
<g>
<g>
<g>
<path fill="#000000" stroke="none" d="
M 50.5 -9.15
Q 47.5248046875 -9.2994140625 44.4 -7.9
L 44.4 -1.45
Q 47.40859375 -2.6818359375 50.5 -2.5
L 50.5 -9.15
M 50.5 -20.6
Q 47.51328125 -20.737890625 44.4 -19.3
L 44.4 -13.6
Q 47.5248046875 -14.994921875 50.5 -14.85
L 50.5 -20.6
M 38 -6.7
Q 36.8662109375 -7.1033203125 35.5 -7.85 33.6595703125 -8.8986328125 31.7 -9.05
L 31.7 -1.9
Q 33.2326171875 -1.715625 34.8 -1 36.40625 -0.25859375 38 -0.05
L 38 -6.7
M 25.35 -0.4
L 25.35 -7.55
Q 22.228515625 -6.3212890625 18.95 -7.05
L 18.95 0
Q 22.2708984375 1.0380859375 25.35 -0.4
M 35.5 -13.55
Q 36.8662109375 -12.8033203125 38 -12.4
L 38 -18.15
Q 36.8861328125 -18.5197265625 35.55 -19.25 33.690625 -20.309375 31.7 -20.45
L 31.7 -14.75
Q 33.6595703125 -14.5986328125 35.5 -13.55
M 18.95 -18.35
L 18.95 -12.75
Q 22.228515625 -12.0212890625 25.35 -13.25
L 25.35 -18.85
Q 22.239453125 -17.6541015625 18.95 -18.35
M 18.95 -12.75
Q 17.4662109375 -13.04140625 15.95 -13.75 14.275 -14.52421875 12.55 -14.75
L 12.55 -9.1
Q 14.275 -8.82421875 15.95 -8.05 17.4662109375 -7.34140625 18.95 -7.05
L 18.95 -12.75
M 38 -12.4
L 38 -6.7
Q 40.4353515625 -5.8177734375 41.8 -6.5
L 43.8 -7.6
Q 44.10078125 -7.7267578125 44.4 -7.9
L 44.4 -13.6
Q 44.1009765625 -13.4267578125 43.8 -13.3
L 41.8 -12.2
Q 40.4353515625 -11.5177734375 38 -12.4
M 26.25 -13.6
Q 25.8015625 -13.387109375 25.35 -13.25
L 25.35 -7.55
Q 25.8015625 -7.687109375 26.25 -7.9 29.0814453125 -9.2728515625 31.7 -9.05
L 31.7 -14.75
Q 29.0814453125 -14.9728515625 26.25 -13.6 Z"/>
</g>
</g>
</g>
</g>
</svg>
