
<svg xmlns="http://www.w3.org/2000/svg" version="1.1" xmlns:xlink="http://www.w3.org/1999/xlink" preserveAspectRatio="none" x="0px" y="0px" width="25px" height="25px" viewBox="0 0 25 25">
<defs/>

<g id="MergedLayer_2">
<g>
<g>
<g>
<path fill="#000000" stroke="none" d="
M 50.5 -9.05
Q 48.265625 -8.7423828125 45.95 -7.6
L 44.4 -6.75 44.4 -0.55
Q 45.1765625 -0.767578125 45.95 -1.15 48.25 -2.2 50.5 -2.45
L 50.5 -9.05
M 50.5 -20.5
Q 48.25 -20.2 46 -19
L 46 -19.05 44.4 -18.2 44.4 -12.45 45.95 -13.3
Q 48.2650390625 -14.4587890625 50.5 -14.75
L 50.5 -20.5
M 38 -7.65
Q 37.8271484375 -7.753125 37.65 -7.85 34.8162109375 -9.4646484375 31.7 -9
L 31.7 -1.9
Q 34.27421875 -2.221484375 36.95 -1 37.47578125 -0.7630859375 38 -0.6
L 38 -7.65
M 37.65 -13.55
Q 37.8271484375 -13.453125 38 -13.35
L 38 -19.1
Q 37.8515625 -19.1689453125 37.7 -19.25 34.853515625 -20.871875 31.7 -20.35
L 31.7 -14.7
Q 34.8162109375 -15.1646484375 37.65 -13.55
M 18.95 -7.7
L 18.95 -0.95
Q 22.2650390625 0.8537109375 25.35 0.3
L 25.35 -6.95
Q 22.226171875 -6.3779296875 18.95 -7.7
M 18.95 -19
L 18.95 -13.4
Q 22.226171875 -12.0779296875 25.35 -12.65
L 25.35 -18.25
Q 22.2361328125 -17.7166015625 18.95 -19
M 18.95 -13.4
Q 18.5263671875 -13.55078125 18.1 -13.75 15.3904296875 -15.0025390625 12.55 -14.85
L 12.55 -9.15
Q 15.3904296875 -9.3025390625 18.1 -8.05 18.5263671875 -7.85078125 18.95 -7.7
L 18.95 -13.4
M 38 -13.35
L 38 -7.65
Q 42.032421875 -5.5412109375 43.95 -6.5
L 44.4 -6.75 44.4 -12.45 43.95 -12.2
Q 42.032421875 -11.2412109375 38 -13.35
M 28.4 -13.6
Q 26.89375 -12.8849609375 25.35 -12.65
L 25.35 -6.95
Q 26.89375 -7.1849609375 28.4 -7.9 30.087890625 -8.718359375 31.7 -9
L 31.7 -14.7
Q 30.087890625 -14.418359375 28.4 -13.6 Z"/>
</g>
</g>
</g>
</g>
</svg>
