
<svg xmlns="http://www.w3.org/2000/svg" version="1.1" xmlns:xlink="http://www.w3.org/1999/xlink" preserveAspectRatio="none" x="0px" y="0px" width="25px" height="25px" viewBox="0 0 25 25">
<defs/>

<g id="MergedLayer_2">
<g>
<g>
<g>
<path fill="#000000" stroke="none" d="
M 50.5 -8.2
Q 49.80390625 -7.9298828125 49.1 -7.6
L 47.1 -6.5
Q 46.0607421875 -5.9802734375 44.4 -6.4
L 44.4 0
Q 46.770703125 0.0015625 49.1 -1.15 49.8 -1.5 50.5 -1.7
L 50.5 -8.2
M 49.1 -13.3
Q 49.80390625 -13.6298828125 50.5 -13.9
L 50.5 -19.6
Q 49.85 -19.35 49.15 -19
L 49.15 -19.05 47.1 -17.95
Q 46.0748046875 -17.42421875 44.4 -17.8
L 44.4 -12.1
Q 46.0607421875 -11.6802734375 47.1 -12.2
L 49.1 -13.3
M 38 -8.95
Q 34.9947265625 -9.5244140625 31.7 -8
L 31.7 -1
Q 34.76015625 -2.498828125 38 -1.75
L 38 -8.95
M 31.7 -13.7
Q 34.99453125 -15.2232421875 38 -14.65
L 38 -20.35
Q 35.0037109375 -20.91328125 31.7 -19.4
L 31.7 -13.7
M 18.95 -8.85
L 18.95 -2.05
Q 20.4275390625 -1.7248046875 21.9 -1.05 23.6572265625 -0.0638671875 25.35 0.25
L 25.35 -6.85
Q 23.3302734375 -7.0779296875 21.25 -8.05 20.1115234375 -8.576171875 18.95 -8.85
M 18.95 -14.55
Q 15.833203125 -15.298046875 12.55 -14.25
L 12.55 -8.55
Q 15.8333984375 -9.59609375 18.95 -8.85
L 18.95 -14.55
M 18.95 -20.2
L 18.95 -14.55
Q 20.11171875 -14.276171875 21.25 -13.75 23.3302734375 -12.7779296875 25.35 -12.55
L 25.35 -18.2
Q 23.3583984375 -18.4380859375 21.3 -19.4 20.1337890625 -19.916796875 18.95 -20.2
M 38 -14.65
L 38 -8.95
Q 39.4330078125 -8.62890625 40.8 -7.85 42.8654296875 -6.7212890625 44.4 -6.4
L 44.4 -12.1
Q 42.8654296875 -12.4212890625 40.8 -13.55 39.4328125 -14.32890625 38 -14.65
M 31.7 -13.7
Q 31.6251953125 -13.6365234375 31.55 -13.6 28.5248046875 -12.1638671875 25.35 -12.55
L 25.35 -6.85
Q 28.5248046875 -6.4638671875 31.55 -7.9 31.625 -7.936328125 31.7 -8
L 31.7 -13.7 Z"/>
</g>
</g>
</g>
</g>
</svg>
