
<svg xmlns="http://www.w3.org/2000/svg" version="1.1" xmlns:xlink="http://www.w3.org/1999/xlink" preserveAspectRatio="none" x="0px" y="0px" width="25px" height="25px" viewBox="0 0 25 25">
<defs/>

<g id="MergedLayer_2">
<g>
<g>
<g>
<path fill="#000000" stroke="none" d="
M 50.5 -9.05
Q 47.5259765625 -9.475390625 44.4 -8.3
L 44.4 -1.8
Q 47.465625 -2.8228515625 50.5 -2.35
L 50.5 -9.05
M 50.5 -20.5
Q 47.5134765625 -20.9380859375 44.4 -19.75
L 44.4 -14
Q 47.526171875 -15.1771484375 50.5 -14.75
L 50.5 -20.5
M 38 -6.4
Q 36.4818359375 -6.739453125 34.45 -7.85 33.106640625 -8.6154296875 31.7 -8.9
L 31.7 -1.7
Q 32.6927734375 -1.448828125 33.7 -1 35.866796875 -0.0109375 38 0
L 38 -6.4
M 25.35 -8
Q 25.2751953125 -7.9365234375 25.2 -7.9 22.1509765625 -6.4525390625 18.95 -6.85
L 18.95 0.25
Q 21.98984375 0.8681640625 24.8 -0.65 25.074609375 -0.8033203125 25.35 -0.95
L 25.35 -8
M 31.7 -14.6
Q 33.1068359375 -14.315234375 34.45 -13.55 36.4818359375 -12.439453125 38 -12.1
L 38 -17.8
Q 36.4916015625 -18.148828125 34.5 -19.25 33.1353515625 -20.0275390625 31.7 -20.3
L 31.7 -14.6
M 18.95 -18.2
L 18.95 -12.55
Q 22.1509765625 -12.1525390625 25.2 -13.6 25.275 -13.636328125 25.35 -13.7
L 25.35 -19.35
Q 25.2751953125 -19.2869140625 25.2 -19.25 22.1615234375 -17.7927734375 18.95 -18.2
M 14.9 -13.75
Q 13.737109375 -14.2875 12.55 -14.6
L 12.55 -8.85
Q 13.737109375 -8.5875 14.9 -8.05 16.9544921875 -7.0900390625 18.95 -6.85
L 18.95 -12.55
Q 16.9544921875 -12.7900390625 14.9 -13.75
M 25.35 -8
Q 28.6720703125 -9.5357421875 31.7 -8.9
L 31.7 -14.6
Q 28.6720703125 -15.2373046875 25.35 -13.7
L 25.35 -8
M 38 -12.1
L 38 -6.4
Q 39.6951171875 -5.9724609375 40.75 -6.5
L 42.75 -7.6
Q 43.5802734375 -7.9935546875 44.4 -8.3
L 44.4 -14
Q 43.58046875 -13.6935546875 42.75 -13.3
L 40.75 -12.2
Q 39.6951171875 -11.6724609375 38 -12.1 Z"/>
</g>
</g>
</g>
</g>
</svg>
