
<svg xmlns="http://www.w3.org/2000/svg" version="1.1" xmlns:xlink="http://www.w3.org/1999/xlink" preserveAspectRatio="none" x="0px" y="0px" width="25px" height="25px" viewBox="0 0 25 25">
<defs/>

<g id="MergedLayer_2">
<g>
<g>
<g>
<path fill="#000000" stroke="none" d="
M 50.2 -7.6
L 48.2 -6.5
Q 46.8353515625 -5.8177734375 44.4 -6.7
L 44.4 -0.1
Q 47.3208984375 0.2734375 50.2 -1.15 50.35 -1.2 50.5 -1.25
L 50.5 -7.75
Q 50.350390625 -7.65078125 50.2 -7.6
M 50.5 -19.15
Q 50.4 -19.1 50.25 -19
L 50.25 -19.05 48.25 -17.95
Q 46.871484375 -17.2607421875 44.4 -18.2
L 44.4 -12.4
Q 46.8353515625 -11.5177734375 48.2 -12.2
L 50.2 -13.3
Q 50.350390625 -13.35078125 50.5 -13.45
L 50.5 -19.15
M 38 -9.1
Q 35.42734375 -9.2466796875 32.65 -7.9 32.176953125 -7.675390625 31.7 -7.5
L 31.7 -0.4
Q 32.0015625 -0.5353515625 32.3 -0.7 35.087109375 -2.25546875 38 -1.95
L 38 -9.1
M 32.65 -13.6
Q 35.42734375 -14.9466796875 38 -14.8
L 38 -20.5
Q 35.4357421875 -20.6400390625 32.7 -19.3 32.20234375 -19.0587890625 31.7 -18.9
L 31.7 -13.2
Q 32.176953125 -13.375390625 32.65 -13.6
M 18.95 -9.05
L 18.95 -2.3
Q 20.9716796875 -1.9890625 23 -1.05 24.192578125 -0.3875 25.35 -0.05
L 25.35 -7.05
Q 23.8662109375 -7.34140625 22.35 -8.05 20.675 -8.82421875 18.95 -9.05
M 18.95 -14.75
Q 15.8318359375 -15.1853515625 12.55 -13.85
L 12.55 -8.15
Q 15.83203125 -9.4826171875 18.95 -9.05
L 18.95 -14.75
M 18.95 -20.4
L 18.95 -14.75
Q 20.6751953125 -14.52421875 22.35 -13.75 23.866015625 -13.0416015625 25.35 -12.75
L 25.35 -18.4
Q 23.86796875 -18.697265625 22.35 -19.4 20.68046875 -20.165234375 18.95 -20.4
M 25.35 -7.05
Q 28.60234375 -6.325 31.7 -7.5
L 31.7 -13.2
Q 28.60234375 -12.023828125 25.35 -12.75
L 25.35 -7.05
M 38 -14.8
L 38 -9.1
Q 40.0126953125 -8.925390625 41.9 -7.85 43.2662109375 -7.1033203125 44.4 -6.7
L 44.4 -12.4
Q 43.2662109375 -12.8033203125 41.9 -13.55 40.0126953125 -14.625390625 38 -14.8 Z"/>
</g>
</g>
</g>
</g>
</svg>
