
<svg xmlns="http://www.w3.org/2000/svg" version="1.1" xmlns:xlink="http://www.w3.org/1999/xlink" preserveAspectRatio="none" x="0px" y="0px" width="25px" height="25px" viewBox="0 0 25 25">
<defs/>

<g id="MergedLayer_2">
<g>
<g>
<g>
<path fill="#000000" stroke="none" d="
M 45.25 -8.05
Q 44.8267578125 -8.245703125 44.4 -8.4
L 44.4 -1.75
Q 45.1505859375 -1.4958984375 45.9 -1.15 48.25 0.15 50.5 0.35
L 50.5 -6.75
Q 47.925 -6.8 45.25 -8.05
M 44.4 -14.1
Q 44.8267578125 -13.945703125 45.25 -13.75 47.925 -12.5 50.5 -12.45
L 50.5 -18.2
Q 47.95 -18.25 45.3 -19.5 44.8517578125 -19.7029296875 44.4 -19.9
L 44.4 -14.1
M 32.2 -6.5
Q 31.9658203125 -6.3830078125 31.7 -6.3
L 31.7 -0.2
Q 32.926953125 -0.481640625 34.15 -1.1 36.0779296875 -1.9986328125 38 -2.35
L 38 -8.95
Q 36.127734375 -8.56484375 34.2 -7.6
L 32.2 -6.5
M 34.2 -13.3
Q 36.127734375 -14.26484375 38 -14.65
L 38 -20.35
Q 36.149609375 -19.924609375 34.25 -18.95
L 34.25 -19 32.25 -17.9
Q 31.9939453125 -17.771875 31.7 -17.7
L 31.7 -12
Q 31.9658203125 -12.0830078125 32.2 -12.2
L 34.2 -13.3
M 18.95 -8.75
L 18.95 -1.7
Q 22.0025390625 -2.409765625 25.2 -0.95 25.2751953125 -0.91484375 25.35 -0.9
L 25.35 -8.15
Q 22.3095703125 -9.641015625 18.95 -8.75
M 18.95 -20.1
L 18.95 -14.45
Q 22.3095703125 -15.341015625 25.35 -13.85
L 25.35 -19.55
Q 22.284375 -20.99296875 18.95 -20.1
M 18.95 -14.45
Q 17.8181640625 -14.16640625 16.65 -13.6 14.633203125 -12.642578125 12.55 -12.5
L 12.55 -6.8
Q 14.633203125 -6.942578125 16.65 -7.9 17.8181640625 -8.46640625 18.95 -8.75
L 18.95 -14.45
M 38 -14.65
L 38 -8.95
Q 41.2853515625 -9.5845703125 44.4 -8.4
L 44.4 -14.1
Q 41.2853515625 -15.2845703125 38 -14.65
M 25.9 -13.55
Q 25.6265625 -13.705859375 25.35 -13.85
L 25.35 -8.15
Q 25.6265625 -8.005859375 25.9 -7.85 29.696484375 -5.7751953125 31.7 -6.3
L 31.7 -12
Q 29.696484375 -11.4751953125 25.9 -13.55 Z"/>
</g>
</g>
</g>
</g>
</svg>
