
<svg xmlns="http://www.w3.org/2000/svg" version="1.1" xmlns:xlink="http://www.w3.org/1999/xlink" preserveAspectRatio="none" x="0px" y="0px" width="25px" height="25px" viewBox="0 0 25 25">
<defs/>

<g id="MergedLayer_2">
<g>
<g>
<g>
<path fill="#000000" stroke="none" d="
M 45.65 -7.85
Q 45.03203125 -8.2021484375 44.4 -8.45
L 44.4 -1.3
Q 44.674609375 -1.17265625 44.95 -1.05 47.75 0.25 50.5 -0.1
L 50.5 -6.2
Q 48.62578125 -6.2236328125 45.65 -7.85
M 44.4 -14.15
Q 45.03203125 -13.9021484375 45.65 -13.55 48.62578125 -11.9236328125 50.5 -11.9
L 50.5 -17.65
Q 48.65 -17.7 45.7 -19.3 45.057421875 -19.666015625 44.4 -19.95
L 44.4 -14.15
M 38 -8.55
Q 37.2087890625 -8.2921875 36.4 -7.9 34.093359375 -6.8048828125 31.7 -6.8
L 31.7 0.4
Q 33.9453125 0.437109375 36.05 -0.7 37.0173828125 -1.2400390625 38 -1.55
L 38 -8.55
M 36.4 -13.6
Q 37.2087890625 -13.9921875 38 -14.25
L 38 -19.95
Q 37.233203125 -19.6876953125 36.45 -19.3 34.124609375 -18.19609375 31.7 -18.15
L 31.7 -12.5
Q 34.093359375 -12.5048828125 36.4 -13.6
M 18.95 -8.95
L 18.95 -2.25
Q 22.1576171875 -2.7642578125 25.35 -1.65
L 25.35 -8.4
Q 22.237109375 -9.5765625 18.95 -8.95
M 18.95 -20.25
L 18.95 -14.65
Q 22.235546875 -15.27734375 25.35 -14.1
L 25.35 -19.75
Q 22.2369140625 -20.937109375 18.95 -20.25
M 18.95 -14.65
Q 17.029296875 -14.290625 15.05 -13.3
L 13.05 -12.2
Q 12.816015625 -12.0830078125 12.55 -12.05
L 12.55 -6.3
Q 12.8158203125 -6.3830078125 13.05 -6.5
L 15.05 -7.6
Q 17.0296875 -8.573046875 18.95 -8.95
L 18.95 -14.65
M 38 -14.25
L 38 -8.55
Q 41.35625 -9.6677734375 44.4 -8.45
L 44.4 -14.15
Q 41.35625 -15.3677734375 38 -14.25
M 26.1 -13.75
Q 25.7263671875 -13.92265625 25.35 -14.1
L 25.35 -8.4
Q 25.7265625 -8.22265625 26.1 -8.05 28.95703125 -6.71484375 31.7 -6.8
L 31.7 -12.5
Q 28.95703125 -12.41484375 26.1 -13.75 Z"/>
</g>
</g>
</g>
</g>
</svg>
