
<svg xmlns="http://www.w3.org/2000/svg" version="1.1" xmlns:xlink="http://www.w3.org/1999/xlink" preserveAspectRatio="none" x="0px" y="0px" width="25px" height="25px" viewBox="0 0 25 25">
<defs/>

<g id="MergedLayer_2">
<g>
<g>
<g>
<path fill="#000000" stroke="none" d="
M 50.5 -8.55
Q 47.5287109375 -9.551953125 44.4 -8.95
L 44.4 -2.35
Q 47.45 -2.8666015625 50.5 -1.85
L 50.5 -8.55
M 44.4 -14.65
Q 47.5287109375 -15.255078125 50.5 -14.25
L 50.5 -19.95
Q 47.5189453125 -20.985546875 44.4 -20.35
L 44.4 -14.65
M 38 -6.3
Q 36.002734375 -5.8263671875 32.3 -7.85 32.0015625 -8.0201171875 31.7 -8.2
L 31.7 -0.95
Q 34.886328125 0.4763671875 38 -0.2
L 38 -6.3
M 25.35 -8.8
Q 24.2181640625 -8.46640625 23.05 -7.9 21.033203125 -6.942578125 18.95 -6.8
L 18.95 0.4
Q 20.8474609375 0.323828125 22.65 -0.65 23.985546875 -1.3955078125 25.35 -1.7
L 25.35 -8.8
M 31.7 -13.9
Q 32.0017578125 -13.719921875 32.3 -13.55 36.002734375 -11.5263671875 38 -12
L 38 -17.7
Q 36.008984375 -17.2267578125 32.35 -19.25 32.0271484375 -19.4302734375 31.7 -19.6
L 31.7 -13.9
M 18.95 -18.1
L 18.95 -12.5
Q 21.033203125 -12.642578125 23.05 -13.6 24.2181640625 -14.16640625 25.35 -14.45
L 25.35 -20.1
Q 24.219140625 -19.811328125 23.05 -19.25 21.0380859375 -18.264453125 18.95 -18.1
M 12.75 -13.75
Q 12.6501953125 -13.79609375 12.55 -13.85
L 12.55 -8.15
Q 12.6501953125 -8.09609375 12.75 -8.05 15.9201171875 -6.5685546875 18.95 -6.8
L 18.95 -12.5
Q 15.9201171875 -12.2685546875 12.75 -13.75
M 25.35 -8.8
Q 28.6818359375 -9.63671875 31.7 -8.2
L 31.7 -13.9
Q 28.68203125 -15.33359375 25.35 -14.45
L 25.35 -8.8
M 38 -6.3
Q 38.322265625 -6.3611328125 38.6 -6.5
L 40.6 -7.6
Q 42.528125 -8.5470703125 44.4 -8.95
L 44.4 -14.65
Q 42.5283203125 -14.2470703125 40.6 -13.3
L 38.6 -12.2
Q 38.322265625 -12.0611328125 38 -12
L 38 -6.3 Z"/>
</g>
</g>
</g>
</g>
</svg>
