
<svg xmlns="http://www.w3.org/2000/svg" version="1.1" xmlns:xlink="http://www.w3.org/1999/xlink" preserveAspectRatio="none" x="0px" y="0px" width="25px" height="25px" viewBox="0 0 25 25">
<defs/>

<g id="MergedLayer_2">
<g>
<g>
<g>
<path fill="#000000" stroke="none" d="
M 48.45 -8.05
Q 46.4603515625 -8.9697265625 44.4 -9.15
L 44.4 -2.5
Q 46.75 -2.2546875 49.1 -1.15 49.8 -0.75 50.5 -0.45
L 50.5 -7.3
Q 49.482421875 -7.567578125 48.45 -8.05
M 44.4 -14.85
Q 46.4603515625 -14.6697265625 48.45 -13.75 49.482421875 -13.267578125 50.5 -13
L 50.5 -18.7
Q 49.5 -19.05 48.5 -19.5 46.4828125 -20.4326171875 44.4 -20.6
L 44.4 -14.85
M 38 -7.9
Q 37.70078125 -7.7505859375 37.4 -7.6
L 35.4 -6.5
Q 34.063671875 -5.8318359375 31.7 -6.65
L 31.7 -0.05
Q 34.5703125 0.2990234375 37.4 -1.1 37.7 -1.2435546875 38 -1.4
L 38 -7.9
M 37.4 -13.3
Q 37.70078125 -13.4505859375 38 -13.6
L 38 -19.25
Q 37.7255859375 -19.09375 37.45 -18.95
L 37.45 -19 35.45 -17.9
Q 34.105859375 -17.2279296875 31.7 -18.05
L 31.7 -12.35
Q 34.063671875 -11.5318359375 35.4 -12.2
L 37.4 -13.3
M 19.85 -7.9
Q 19.4017578125 -7.687109375 18.95 -7.55
L 18.95 -0.4
Q 19.2009765625 -0.512890625 19.45 -0.65 22.3447265625 -2.2470703125 25.35 -1.85
L 25.35 -9.05
Q 22.7083984375 -9.2859375 19.85 -7.9
M 18.95 -13.25
Q 15.828515625 -12.0181640625 12.55 -12.75
L 12.55 -7.05
Q 15.8287109375 -6.3193359375 18.95 -7.55
L 18.95 -13.25
M 19.9 -19.25
Q 19.4263671875 -19.02265625 18.95 -18.85
L 18.95 -13.25
Q 19.4017578125 -13.3873046875 19.85 -13.6 22.7083984375 -14.9859375 25.35 -14.75
L 25.35 -20.4
Q 22.7248046875 -20.63359375 19.9 -19.25
M 38 -13.6
L 38 -7.9
Q 41.2810546875 -9.373046875 44.4 -9.15
L 44.4 -14.85
Q 41.2810546875 -15.073046875 38 -13.6
M 29.1 -13.55
Q 27.283203125 -14.58515625 25.35 -14.75
L 25.35 -9.05
Q 27.283203125 -8.88515625 29.1 -7.85 30.5267578125 -7.0703125 31.7 -6.65
L 31.7 -12.35
Q 30.5267578125 -12.7703125 29.1 -13.55 Z"/>
</g>
</g>
</g>
</g>
</svg>
