
<svg xmlns="http://www.w3.org/2000/svg" version="1.1" xmlns:xlink="http://www.w3.org/1999/xlink" preserveAspectRatio="none" x="0px" y="0px" width="25px" height="25px" viewBox="0 0 25 25">
<defs/>

<g id="MergedLayer_2">
<g>
<g>
<g>
<path fill="#000000" stroke="none" d="
M 50.5 -8.9
Q 47.58671875 -9.5328125 44.4 -8.15
L 44.4 -1.2
Q 47.374609375 -2.5248046875 50.5 -1.7
L 50.5 -8.9
M 44.4 -13.85
Q 47.5869140625 -15.23359375 50.5 -14.6
L 50.5 -20.3
Q 47.5791015625 -20.9955078125 44.4 -19.6
L 44.4 -13.85
M 38 -6.8
Q 35.8107421875 -6.9935546875 33.55 -8.05 32.6328125 -8.4740234375 31.7 -8.75
L 31.7 -2
Q 32.926171875 -1.6697265625 34.15 -1.1 36.12578125 -0.01328125 38 0.25
L 38 -6.8
M 25.35 -8.7
Q 23.940625 -8.301171875 22.5 -7.6
L 20.5 -6.5
Q 19.8474609375 -6.173828125 18.95 -6.2
L 18.95 0.05
Q 20.72890625 -0.164453125 22.5 -1.05 23.9265625 -1.7205078125 25.35 -2.1
L 25.35 -8.7
M 33.55 -13.75
Q 35.8107421875 -12.6935546875 38 -12.5
L 38 -18.25
Q 35.8265625 -18.3998046875 33.6 -19.45 32.65625 -19.8732421875 31.7 -20.15
L 31.7 -14.45
Q 32.6326171875 -14.1740234375 33.55 -13.75
M 18.95 -17.55
L 18.95 -11.9
Q 19.8474609375 -11.873828125 20.5 -12.2
L 22.5 -13.3
Q 23.940625 -14.02109375 25.35 -14.4
L 25.35 -20.05
Q 23.9376953125 -19.6376953125 22.5 -18.9
L 22.5 -18.95 20.55 -17.85
Q 19.8794921875 -17.5146484375 18.95 -17.55
M 14.2 -13.55
Q 13.38671875 -14.01328125 12.55 -14.3
L 12.55 -8.6
Q 13.38671875 -8.3134765625 14.2 -7.85 17.097265625 -6.2666015625 18.95 -6.2
L 18.95 -11.9
Q 17.097265625 -11.9666015625 14.2 -13.55
M 31.7 -14.45
Q 28.6076171875 -15.305859375 25.35 -14.4
L 25.35 -8.7
Q 28.608984375 -9.6060546875 31.7 -8.75
L 31.7 -14.45
M 38 -12.5
L 38 -6.8
Q 40.991796875 -6.54296875 43.85 -7.9 44.1259765625 -8.0337890625 44.4 -8.15
L 44.4 -13.85
Q 44.126171875 -13.733984375 43.85 -13.6 40.991796875 -12.24296875 38 -12.5 Z"/>
</g>
</g>
</g>
</g>
</svg>
