
<svg xmlns="http://www.w3.org/2000/svg" version="1.1" xmlns:xlink="http://www.w3.org/1999/xlink" preserveAspectRatio="none" x="0px" y="0px" width="25px" height="25px" viewBox="0 0 25 25">
<defs/>

<g id="MergedLayer_2">
<g>
<g>
<g>
<path fill="#000000" stroke="none" d="
M 49.25 -6.5
Q 47.6041015625 -5.676953125 44.4 -7.15
L 44.4 -0.3
Q 47.5046875 0.4203125 50.5 -0.8
L 50.5 -7.2 49.25 -6.5
M 44.4 -18.6
L 44.4 -12.85
Q 47.6041015625 -11.376953125 49.25 -12.2
L 50.5 -12.9 50.5 -18.6 49.3 -17.95
Q 47.6412109375 -17.120703125 44.4 -18.6
M 38 -9.1
Q 35.915234375 -8.9740234375 33.7 -7.9 32.708203125 -7.4291015625 31.7 -7.15
L 31.7 0
Q 32.53359375 -0.2546875 33.35 -0.7 35.625 -1.9845703125 38 -2
L 38 -9.1
M 33.7 -13.6
Q 35.915234375 -14.6740234375 38 -14.8
L 38 -20.5
Q 35.9189453125 -20.3650390625 33.7 -19.3 32.709375 -18.81484375 31.7 -18.55
L 31.7 -12.85
Q 32.708203125 -13.1291015625 33.7 -13.6
M 18.95 -9.15
L 18.95 -2.4
Q 21.4953125 -2.240625 24.05 -1.05 24.7046875 -0.6826171875 25.35 -0.4
L 25.35 -7.3
Q 24.381640625 -7.5912109375 23.4 -8.05 21.2173828125 -9.058984375 18.95 -9.15
M 18.95 -14.85
Q 15.83046875 -14.98046875 12.55 -13.4
L 12.55 -7.7
Q 15.83046875 -9.2802734375 18.95 -9.15
L 18.95 -14.85
M 18.95 -20.5
L 18.95 -14.85
Q 21.217578125 -14.7587890625 23.4 -13.75 24.381640625 -13.2912109375 25.35 -13
L 25.35 -18.65
Q 24.407421875 -18.952734375 23.45 -19.4 21.24765625 -20.397265625 18.95 -20.5
M 25.35 -7.3
Q 28.601171875 -6.3048828125 31.7 -7.15
L 31.7 -12.85
Q 28.601171875 -12.0048828125 25.35 -13
L 25.35 -7.3
M 38 -14.8
L 38 -9.1
Q 40.57421875 -9.203515625 42.95 -7.85 43.7111328125 -7.433984375 44.4 -7.15
L 44.4 -12.85
Q 43.7111328125 -13.133984375 42.95 -13.55 40.57421875 -14.903515625 38 -14.8 Z"/>
</g>
</g>
</g>
</g>
</svg>
