
<svg xmlns="http://www.w3.org/2000/svg" version="1.1" xmlns:xlink="http://www.w3.org/1999/xlink" preserveAspectRatio="none" x="0px" y="0px" width="25px" height="25px" viewBox="0 0 25 25">
<defs/>

<g id="MergedLayer_2">
<g>
<g>
<g>
<path fill="#000000" stroke="none" d="
M 50.5 -7.2
Q 47.5205078125 -6.3337890625 44.4 -7.2
L 44.4 -0.4
Q 47.5927734375 0.866015625 50.5 -0.05
L 50.5 -7.2
M 44.4 -12.9
Q 47.5205078125 -12.0337890625 50.5 -12.9
L 50.5 -18.6
Q 47.5177734375 -17.7900390625 44.4 -18.65
L 44.4 -12.9
M 38 -9.15
Q 34.9283203125 -9.36015625 31.7 -7.9
L 31.7 -1.4
Q 34.85 -2.711328125 38 -2.45
L 38 -9.15
M 38 -20.55
Q 34.9212890625 -20.7484375 31.7 -19.25
L 31.7 -13.6
Q 34.928515625 -15.0630859375 38 -14.85
L 38 -20.55
M 18.95 -9.05
L 18.95 -1.85
Q 20.485546875 -1.647265625 22.05 -0.95 23.706640625 -0.1853515625 25.35 0
L 25.35 -6.65
Q 24.1767578125 -7.0703125 22.75 -7.85 20.9095703125 -8.8986328125 18.95 -9.05
M 18.95 -20.4
L 18.95 -14.75
Q 20.9095703125 -14.5986328125 22.75 -13.55 24.1767578125 -12.7703125 25.35 -12.35
L 25.35 -18.05
Q 24.1763671875 -18.4294921875 22.75 -19.2 20.9052734375 -20.251171875 18.95 -20.4
M 13.5 -13.6
Q 13.026953125 -13.375390625 12.55 -13.2
L 12.55 -7.5
Q 13.0267578125 -7.675390625 13.5 -7.9 16.3314453125 -9.2728515625 18.95 -9.05
L 18.95 -14.75
Q 16.3314453125 -14.9728515625 13.5 -13.6
M 38 -14.85
L 38 -9.15
Q 40.0861328125 -8.980859375 42.1 -8.05 43.2595703125 -7.508203125 44.4 -7.2
L 44.4 -12.9
Q 43.2595703125 -13.208203125 42.1 -13.75 40.0861328125 -14.680859375 38 -14.85
M 31.7 -13.6
Q 31.3759765625 -13.4630859375 31.05 -13.3
L 29.05 -12.2
Q 27.713671875 -11.5318359375 25.35 -12.35
L 25.35 -6.65
Q 27.713671875 -5.8318359375 29.05 -6.5
L 31.05 -7.6
Q 31.3759765625 -7.7630859375 31.7 -7.9
L 31.7 -13.6 Z"/>
</g>
</g>
</g>
</g>
</svg>
