
<svg xmlns="http://www.w3.org/2000/svg" version="1.1" xmlns:xlink="http://www.w3.org/1999/xlink" preserveAspectRatio="none" x="0px" y="0px" width="25px" height="25px" viewBox="0 0 25 25">
<defs/>

<g id="MergedLayer_2">
<g>
<g>
<g>
<path fill="#000000" stroke="none" d="
M 47.05 -7.9
Q 45.7390625 -7.277734375 44.4 -7
L 44.4 0.1
Q 45.5705078125 -0.13984375 46.7 -0.75 48.55 -1.8 50.5 -1.95
L 50.5 -9
Q 48.8166015625 -8.7564453125 47.05 -7.9
M 44.4 -12.7
Q 45.7390625 -12.977734375 47.05 -13.6 48.8166015625 -14.4564453125 50.5 -14.7
L 50.5 -20.45
Q 48.85 -20.2 47.1 -19.35 45.7646484375 -18.716015625 44.4 -18.45
L 44.4 -12.7
M 38 -7.55
Q 37.377734375 -7.756640625 36.75 -8.05 34.28046875 -9.1916015625 31.7 -9.15
L 31.7 -2.45
Q 34.5560546875 -2.4369140625 37.4 -1.1 37.701171875 -0.9357421875 38 -0.8
L 38 -7.55
M 36.75 -13.75
Q 37.377734375 -13.456640625 38 -13.25
L 38 -18.95
Q 37.4025390625 -19.1740234375 36.8 -19.45 34.3001953125 -20.6056640625 31.7 -20.55
L 31.7 -14.9
Q 34.2794921875 -14.8919921875 36.75 -13.75
M 18.95 -7.1
L 18.95 -0.15
Q 22.162890625 0.567578125 25.35 -0.9
L 25.35 -7.4 23.7 -6.5
Q 22.0798828125 -5.68984375 18.95 -7.1
M 18.95 -18.45
L 18.95 -12.8
Q 22.0798828125 -11.38984375 23.7 -12.2
L 25.35 -13.1 25.35 -18.75 23.75 -17.85
Q 22.116796875 -17.0333984375 18.95 -18.45
M 18.95 -12.8
Q 18.2166015625 -13.1037109375 17.4 -13.55 15.0705078125 -14.8771484375 12.55 -14.8
L 12.55 -9.1
Q 15.0705078125 -9.17734375 17.4 -7.85 18.2166015625 -7.4037109375 18.95 -7.1
L 18.95 -12.8
M 38 -13.25
L 38 -7.55
Q 41.2763671875 -6.335546875 44.4 -7
L 44.4 -12.7
Q 41.2763671875 -12.035546875 38 -13.25
M 25.7 -13.3
L 25.35 -13.1 25.35 -7.4 25.7 -7.6
Q 28.7712890625 -9.1232421875 31.7 -9.15
L 31.7 -14.9
Q 28.7701171875 -14.83671875 25.7 -13.3 Z"/>
</g>
</g>
</g>
</g>
</svg>
