
<svg xmlns="http://www.w3.org/2000/svg" version="1.1" xmlns:xlink="http://www.w3.org/1999/xlink" preserveAspectRatio="none" x="0px" y="0px" width="25px" height="25px" viewBox="0 0 25 25">
<defs/>

<g id="MergedLayer_2">
<g>
<g>
<g>
<path fill="#000000" stroke="none" d="
M 47.8 -7.85
Q 46.148046875 -8.7912109375 44.4 -9.05
L 44.4 -1.9
Q 45.7369140625 -1.672265625 47.1 -1.05 48.8 -0.25 50.5 -0.1
L 50.5 -6.65
Q 49.2876953125 -7.0369140625 47.8 -7.85
M 44.4 -14.75
Q 46.148046875 -14.4912109375 47.8 -13.55 49.2876953125 -12.7369140625 50.5 -12.35
L 50.5 -18.1
Q 49.3 -18.5 47.85 -19.3 46.1662109375 -20.2482421875 44.4 -20.45
L 44.4 -14.75
M 38 -7.65
Q 34.9265625 -6.36640625 31.7 -6.95
L 31.7 0.05
Q 34.992578125 0.9447265625 38 -0.6
L 38 -7.65
M 31.7 -12.65
Q 34.9265625 -12.06640625 38 -13.35
L 38 -19.05
Q 34.935546875 -17.7658203125 31.7 -18.35
L 31.7 -12.65
M 18.95 -8.35
L 18.95 -1.75
Q 22.1576171875 -2.7869140625 25.35 -2.2
L 25.35 -9
Q 22.233984375 -9.5501953125 18.95 -8.35
M 18.95 -19.65
L 18.95 -14.05
Q 22.232421875 -15.2513671875 25.35 -14.7
L 25.35 -20.35
Q 22.2337890625 -20.8873046875 18.95 -19.65
M 18.95 -14.05
Q 18.080859375 -13.741015625 17.2 -13.3
L 15.2 -12.2
Q 14.1763671875 -11.6880859375 12.55 -12.05
L 12.55 -6.35
Q 14.1763671875 -5.98828125 15.2 -6.5
L 17.2 -7.6
Q 18.0810546875 -8.019140625 18.95 -8.35
L 18.95 -14.05
M 28.25 -13.75
Q 26.818359375 -14.41171875 25.35 -14.7
L 25.35 -9
Q 26.81875 -8.7115234375 28.25 -8.05 29.996484375 -7.2337890625 31.7 -6.95
L 31.7 -12.65
Q 29.996484375 -12.9337890625 28.25 -13.75
M 38.55 -13.6
Q 38.2755859375 -13.4697265625 38 -13.35
L 38 -7.65
Q 38.2755859375 -7.7697265625 38.55 -7.9 41.5984375 -9.3779296875 44.4 -9.05
L 44.4 -14.75
Q 41.5984375 -15.0779296875 38.55 -13.6 Z"/>
</g>
</g>
</g>
</g>
</svg>
