
<svg xmlns="http://www.w3.org/2000/svg" version="1.1" xmlns:xlink="http://www.w3.org/1999/xlink" preserveAspectRatio="none" x="0px" y="0px" width="25px" height="25px" viewBox="0 0 25 25">
<defs/>

<g id="MergedLayer_2">
<g>
<g>
<g>
<path fill="#000000" stroke="none" d="
M 48.1 -7.9
Q 46.2771484375 -7.0345703125 44.4 -6.85
L 44.4 0.3
Q 46.1173828125 0.13203125 47.75 -0.75 49.1 -1.5 50.5 -1.8
L 50.5 -8.8
Q 49.3197265625 -8.49140625 48.1 -7.9
M 44.4 -12.55
Q 46.2771484375 -12.7345703125 48.1 -13.6 49.3197265625 -14.19140625 50.5 -14.5
L 50.5 -20.2
Q 49.35 -19.95 48.15 -19.35 46.3029296875 -18.473046875 44.4 -18.3
L 44.4 -12.55
M 38 -7.95
Q 37.9 -8.0033203125 37.8 -8.05 34.8302734375 -9.4228515625 31.7 -9.1
L 31.7 -2.45
Q 34.8357421875 -2.663671875 38 -1.3
L 38 -7.95
M 37.8 -13.75
Q 37.9 -13.7033203125 38 -13.65
L 38 -19.4
Q 37.9251953125 -19.415625 37.85 -19.45 34.847265625 -20.8380859375 31.7 -20.5
L 31.7 -14.8
Q 34.8287109375 -15.1236328125 37.8 -13.75
M 18.95 -7.6
L 18.95 -0.45
Q 22.175390625 0.623828125 25.35 -0.5
L 25.35 -6.85 24.75 -6.5
Q 22.8681640625 -5.5591796875 18.95 -7.6
M 18.95 -18.95
L 18.95 -13.3
Q 22.8681640625 -11.2591796875 24.75 -12.2
L 25.35 -12.55 25.35 -18.15 24.8 -17.85
Q 22.87109375 -16.908984375 18.95 -18.95
M 18.95 -13.3
Q 18.7041015625 -13.4111328125 18.45 -13.55 15.6390625 -15.1515625 12.55 -14.7
L 12.55 -9
Q 15.6388671875 -9.4515625 18.45 -7.85 18.7041015625 -7.7111328125 18.95 -7.6
L 18.95 -13.3
M 38 -13.65
L 38 -7.95
Q 41.2751953125 -6.478125 44.4 -6.85
L 44.4 -12.55
Q 41.2751953125 -12.178125 38 -13.65
M 26.75 -13.3
L 25.35 -12.55 25.35 -6.85 26.75 -7.6
Q 29.2732421875 -8.846875 31.7 -9.1
L 31.7 -14.8
Q 29.2724609375 -14.5625 26.75 -13.3 Z"/>
</g>
</g>
</g>
</g>
</svg>
