
<svg xmlns="http://www.w3.org/2000/svg" version="1.1" xmlns:xlink="http://www.w3.org/1999/xlink" preserveAspectRatio="none" x="0px" y="0px" width="25px" height="25px" viewBox="0 0 25 25">
<defs/>

<g id="MergedLayer_2">
<g>
<g>
<g>
<path fill="#000000" stroke="none" d="
M 50.5 -8.15
Q 47.5958984375 -9.5720703125 44.4 -8.85
L 44.4 -1.9
Q 47.285546875 -2.426171875 50.3 -1.05 50.4 -1 50.5 -0.95
L 50.5 -8.15
M 44.4 -14.55
Q 47.5958984375 -15.269921875 50.5 -13.85
L 50.5 -19.6
Q 47.603515625 -21.03046875 44.4 -20.3
L 44.4 -14.55
M 38 -6.85
Q 34.923046875 -6.49140625 31.7 -7.95
L 31.7 -1.3
Q 31.9001953125 -1.1921875 32.1 -1.1 35.1650390625 0.602734375 38 0.3
L 38 -6.85
M 31.7 -13.65
Q 34.923046875 -12.19140625 38 -12.55
L 38 -18.25
Q 34.9228515625 -17.9021484375 31.7 -19.35
L 31.7 -13.65
M 18.95 -6.8
L 18.95 -0.45
Q 19.6533203125 -0.6884765625 20.35 -1.05 22.8544921875 -2.2173828125 25.35 -2.4
L 25.35 -9.1
Q 22.9232421875 -8.846875 20.4 -7.6
L 18.95 -6.8
M 18.4 -6.5
L 18.95 -6.8 18.95 -12.5 18.4 -12.2
Q 16.5064453125 -11.253125 12.55 -13.35
L 12.55 -7.6
Q 16.50625 -5.553125 18.4 -6.5
M 18.95 -18.15
L 18.95 -12.5 20.4 -13.3
Q 22.9224609375 -14.5625 25.35 -14.8
L 25.35 -20.45
Q 22.9423828125 -20.1787109375 20.45 -18.9
L 20.45 -18.95 18.95 -18.15
M 38 -12.55
L 38 -6.85
Q 39.903125 -7.023046875 41.75 -7.9 43.0994140625 -8.554296875 44.4 -8.85
L 44.4 -14.55
Q 43.09921875 -14.2541015625 41.75 -13.6 39.903125 -12.723046875 38 -12.55
M 31.7 -13.65
Q 31.5751953125 -13.6916015625 31.45 -13.75 28.4787109375 -15.1236328125 25.35 -14.8
L 25.35 -9.1
Q 28.4802734375 -9.4228515625 31.45 -8.05 31.5751953125 -7.9916015625 31.7 -7.95
L 31.7 -13.65 Z"/>
</g>
</g>
</g>
</g>
</svg>
