
<svg xmlns="http://www.w3.org/2000/svg" version="1.1" xmlns:xlink="http://www.w3.org/1999/xlink" preserveAspectRatio="none" x="0px" y="0px" width="25px" height="25px" viewBox="0 0 25 25">
<defs/>

<g id="MergedLayer_2">
<g>
<g>
<g>
<path fill="#000000" stroke="none" d="
M 46.35 -8.05
Q 45.38359375 -8.496875 44.4 -8.8
L 44.4 -2.1
Q 45.7 -1.75 47 -1.15 48.8 -0.15 50.5 0.2
L 50.5 -6.85
Q 48.4560546875 -7.0658203125 46.35 -8.05
M 44.4 -14.5
Q 45.38359375 -14.196875 46.35 -13.75 48.4560546875 -12.7658203125 50.5 -12.55
L 50.5 -18.3
Q 48.5 -18.55 46.4 -19.5 45.40703125 -19.9455078125 44.4 -20.2
L 44.4 -14.5
M 33.3 -6.5
Q 32.6294921875 -6.1646484375 31.7 -6.2
L 31.7 -0.05
Q 33.512109375 -0.2162109375 35.3 -1.1 36.65 -1.7345703125 38 -2.1
L 38 -8.7
Q 36.6638671875 -8.2826171875 35.3 -7.6
L 33.3 -6.5
M 35.3 -13.3
Q 36.6638671875 -13.9826171875 38 -14.4
L 38 -20.05
Q 36.661328125 -19.6484375 35.3 -18.95
L 35.3 -19 33.35 -17.9
Q 32.661328125 -17.5556640625 31.7 -17.6
L 31.7 -11.9
Q 32.6294921875 -11.8646484375 33.3 -12.2
L 35.3 -13.3
M 18.95 -8.45
L 18.95 -1.35
Q 22.0849609375 -2.512109375 25.35 -1.35
L 25.35 -8.6
Q 22.304296875 -9.6611328125 18.95 -8.45
M 18.95 -19.75
L 18.95 -14.15
Q 22.304296875 -15.3611328125 25.35 -14.3
L 25.35 -20
Q 22.3142578125 -20.9931640625 18.95 -19.75
M 18.95 -14.15
Q 18.3548828125 -13.8931640625 17.75 -13.6 15.203125 -12.3908203125 12.55 -12.5
L 12.55 -6.8
Q 15.2029296875 -6.6908203125 17.75 -7.9 18.3548828125 -8.1931640625 18.95 -8.45
L 18.95 -14.15
M 38 -14.4
L 38 -8.7
Q 41.2837890625 -9.6162109375 44.4 -8.8
L 44.4 -14.5
Q 41.2837890625 -15.3162109375 38 -14.4
M 27 -13.55
Q 26.18671875 -14.01328125 25.35 -14.3
L 25.35 -8.6
Q 26.18671875 -8.31328125 27 -7.85 29.858203125 -6.287890625 31.7 -6.2
L 31.7 -11.9
Q 29.858203125 -11.987890625 27 -13.55 Z"/>
</g>
</g>
</g>
</g>
</svg>
