
<svg xmlns="http://www.w3.org/2000/svg" version="1.1" xmlns:xlink="http://www.w3.org/1999/xlink" preserveAspectRatio="none" x="0px" y="0px" width="25px" height="25px" viewBox="0 0 25 25">
<defs/>

<g id="MergedLayer_2">
<g>
<g>
<g>
<path fill="#000000" stroke="none" d="
M 50.5 -7
Q 48.9671875 -7.317578125 47.4 -8.05 45.9197265625 -8.734375 44.4 -9
L 44.4 -2.35
Q 46.2275390625 -2.006640625 48.05 -1.15 49.3 -0.45 50.5 -0.1
L 50.5 -7
M 50.5 -12.7
L 50.5 -18.45
Q 49 -18.8 47.45 -19.5 45.943359375 -20.196484375 44.4 -20.45
L 44.4 -14.7
Q 45.9197265625 -14.434375 47.4 -13.75 48.9671875 -13.017578125 50.5 -12.7
M 38 -8.35
Q 37.1802734375 -8.015625 36.35 -7.6
L 34.35 -6.5
Q 33.3263671875 -5.9880859375 31.7 -6.35
L 31.7 0.05
Q 34.0068359375 0.0337890625 36.3 -1.1 37.1505859375 -1.5037109375 38 -1.8
L 38 -8.35
M 36.4 -18.95
L 36.4 -19 34.4 -17.9
Q 33.3607421875 -17.3802734375 31.7 -17.75
L 31.7 -12.05
Q 33.3263671875 -11.6880859375 34.35 -12.2
L 36.35 -13.3
Q 37.1802734375 -13.715625 38 -14.05
L 38 -19.7
Q 37.2044921875 -19.3697265625 36.4 -18.95
M 18.95 -8
L 18.95 -0.95
Q 22.071875 -2.4595703125 25.35 -1.65
L 25.35 -8.9
Q 22.2994140625 -9.55 18.95 -8
M 18.95 -19.3
L 18.95 -13.7
Q 22.2994140625 -15.25 25.35 -14.6
L 25.35 -20.25
Q 22.2994140625 -20.890625 18.95 -19.3
M 18.95 -13.7
Q 18.875 -13.636328125 18.8 -13.6 15.7509765625 -12.1525390625 12.55 -12.55
L 12.55 -6.85
Q 15.7509765625 -6.4525390625 18.8 -7.9 18.875 -7.936328125 18.95 -8
L 18.95 -13.7
M 38 -14.05
L 38 -8.35
Q 41.282421875 -9.54453125 44.4 -9
L 44.4 -14.7
Q 41.282421875 -15.24453125 38 -14.05
M 28.05 -13.55
Q 26.7306640625 -14.3017578125 25.35 -14.6
L 25.35 -8.9
Q 26.7306640625 -8.6017578125 28.05 -7.85 30.1490234375 -6.702734375 31.7 -6.35
L 31.7 -12.05
Q 30.1490234375 -12.402734375 28.05 -13.55 Z"/>
</g>
</g>
</g>
</g>
</svg>
