
<svg xmlns="http://www.w3.org/2000/svg" version="1.1" xmlns:xlink="http://www.w3.org/1999/xlink" preserveAspectRatio="none" x="0px" y="0px" width="25px" height="25px" viewBox="0 0 25 25">
<defs/>

<g id="MergedLayer_2">
<g>
<g>
<g>
<path fill="#000000" stroke="none" d="
M 49.2 -7.9
Q 46.8453125 -6.78203125 44.4 -6.75
L 44.4 0.35
Q 46.6984375 0.4123046875 48.85 -0.75 49.65 -1.2 50.5 -1.5
L 50.5 -8.45
Q 49.8556640625 -8.21796875 49.2 -7.9
M 44.4 -12.45
Q 46.8453125 -12.48203125 49.2 -13.6 49.8556640625 -13.91796875 50.5 -14.15
L 50.5 -19.85
Q 49.9 -19.65 49.25 -19.35 46.8767578125 -18.2232421875 44.4 -18.2
L 44.4 -12.45
M 38 -8.45
Q 34.9326171875 -9.571484375 31.7 -8.95
L 31.7 -2.3
Q 34.8576171875 -2.81328125 38 -1.75
L 38 -8.45
M 31.7 -14.65
Q 34.9326171875 -15.272265625 38 -14.15
L 38 -19.85
Q 34.9341796875 -20.978515625 31.7 -20.3
L 31.7 -14.65
M 19.55 -7.85
Q 19.2515625 -8.019921875 18.95 -8.2
L 18.95 -0.9
Q 22.162890625 0.561328125 25.35 -0.2
L 25.35 -6.3
Q 23.346484375 -5.7751953125 19.55 -7.85
M 18.95 -13.9
Q 15.909375 -15.34765625 12.55 -14.45
L 12.55 -8.75
Q 15.909375 -9.645703125 18.95 -8.2
L 18.95 -13.9
M 19.6 -19.2
Q 19.2771484375 -19.3779296875 18.95 -19.55
L 18.95 -13.9
Q 19.2515625 -13.7201171875 19.55 -13.55 23.346484375 -11.4751953125 25.35 -12
L 25.35 -17.65
Q 23.3494140625 -17.1509765625 19.6 -19.2
M 25.85 -12.2
Q 25.6158203125 -12.0830078125 25.35 -12
L 25.35 -6.3
Q 25.6158203125 -6.3830078125 25.85 -6.5
L 27.85 -7.6
Q 29.803515625 -8.577734375 31.7 -8.95
L 31.7 -14.65
Q 29.803515625 -14.277734375 27.85 -13.3
L 25.85 -12.2
M 38.9 -13.75
Q 38.4517578125 -13.9572265625 38 -14.15
L 38 -8.45
Q 38.451953125 -8.25703125 38.9 -8.05 41.705078125 -6.7392578125 44.4 -6.75
L 44.4 -12.45
Q 41.705078125 -12.4392578125 38.9 -13.75 Z"/>
</g>
</g>
</g>
</g>
</svg>
