
<svg xmlns="http://www.w3.org/2000/svg" version="1.1" xmlns:xlink="http://www.w3.org/1999/xlink" preserveAspectRatio="none" x="0px" y="0px" width="25px" height="25px" viewBox="0 0 25 25">
<defs/>

<g id="MergedLayer_2">
<g>
<g>
<g>
<path fill="#000000" stroke="none" d="
M 50.5 -8.1
Q 47.528515625 -9.4416015625 44.4 -9.1
L 44.4 -2.45
Q 47.4578125 -2.705859375 50.5 -1.45
L 50.5 -8.1
M 50.5 -19.55
Q 47.5314453125 -20.8916015625 44.4 -20.5
L 44.4 -14.8
Q 47.528515625 -15.1416015625 50.5 -13.8
L 50.5 -19.55
M 37.55 -6.5
Q 35.65625 -5.553125 31.7 -7.6
L 31.7 -0.55
Q 34.874609375 0.553515625 38 -0.5
L 38 -6.75 37.55 -6.5
M 25.35 -9
Q 23.7140625 -8.7310546875 22 -7.9 20.49375 -7.1849609375 18.95 -6.95
L 18.95 0.3
Q 20.3068359375 0.0716796875 21.6 -0.65 23.45234375 -1.6720703125 25.35 -1.9
L 25.35 -9
M 38 -18.15
L 37.6 -17.9
Q 35.705078125 -16.9525390625 31.7 -19
L 31.7 -13.3
Q 35.65625 -11.253125 37.55 -12.2
L 38 -12.45 38 -18.15
M 18.95 -12.65
Q 15.8259765625 -12.08125 12.55 -13.4
L 12.55 -7.7
Q 15.826171875 -6.3779296875 18.95 -6.95
L 18.95 -12.65
M 18.95 -18.25
L 18.95 -12.65
Q 20.4935546875 -12.884765625 22 -13.6 23.7140625 -14.4310546875 25.35 -14.7
L 25.35 -20.35
Q 23.735546875 -20.0755859375 22.05 -19.25 20.516015625 -18.5072265625 18.95 -18.25
M 39.55 -13.3
L 38 -12.45 38 -6.75 39.55 -7.6
Q 42.0205078125 -8.8365234375 44.4 -9.1
L 44.4 -14.8
Q 42.0205078125 -14.5365234375 39.55 -13.3
M 31.7 -13.3
Q 31.4783203125 -13.4251953125 31.25 -13.55 28.4388671875 -15.1515625 25.35 -14.7
L 25.35 -9
Q 28.4388671875 -9.4515625 31.25 -7.85 31.4783203125 -7.7251953125 31.7 -7.6
L 31.7 -13.3 Z"/>
</g>
</g>
</g>
</g>
</svg>
