
<svg xmlns="http://www.w3.org/2000/svg" version="1.1" xmlns:xlink="http://www.w3.org/1999/xlink" preserveAspectRatio="none" x="0px" y="0px" width="25px" height="25px" viewBox="0 0 25 25">
<defs/>

<g id="MergedLayer_2">
<g>
<g>
<g>
<path fill="#000000" stroke="none" d="
M 50.5 -8.6
Q 47.5912109375 -9.615234375 44.4 -8.55
L 44.4 -1.6
Q 47.379296875 -2.565625 50.5 -1.4
L 50.5 -8.6
M 44.4 -14.25
Q 47.59140625 -15.312890625 50.5 -14.3
L 50.5 -20
Q 47.596484375 -21.0484375 44.4 -20
L 44.4 -14.25
M 38 -6.75
Q 35.305078125 -6.7392578125 32.5 -8.05 32.1015625 -8.2341796875 31.7 -8.4
L 31.7 -1.7
Q 32.42421875 -1.4322265625 33.15 -1.1 35.6517578125 0.28984375 38 0.35
L 38 -6.75
M 32.5 -13.75
Q 35.305078125 -12.4392578125 38 -12.45
L 38 -18.2
Q 35.32890625 -18.1513671875 32.55 -19.45 32.1265625 -19.641796875 31.7 -19.8
L 31.7 -14.1
Q 32.1015625 -13.9341796875 32.5 -13.75
M 19.45 -6.5
Q 19.2158203125 -6.3830078125 18.95 -6.3
L 18.95 -0.15
Q 20.2060546875 -0.42109375 21.45 -1.05 23.39453125 -1.971875 25.35 -2.3
L 25.35 -8.95
Q 23.4296875 -8.573046875 21.45 -7.6
L 19.45 -6.5
M 19.45 -17.85
Q 19.2158203125 -17.7271484375 18.95 -17.65
L 18.95 -12
Q 19.2158203125 -12.0830078125 19.45 -12.2
L 21.45 -13.3
Q 23.429296875 -14.290625 25.35 -14.65
L 25.35 -20.3
Q 23.429296875 -19.906640625 21.45 -18.9
L 21.45 -18.95 19.45 -17.85
M 13.15 -13.55
Q 12.8517578125 -13.719921875 12.55 -13.9
L 12.55 -8.2
Q 12.8515625 -8.0201171875 13.15 -7.85 16.946484375 -5.7751953125 18.95 -6.3
L 18.95 -12
Q 16.946484375 -11.4751953125 13.15 -13.55
M 31.7 -14.1
Q 28.608984375 -15.27734375 25.35 -14.65
L 25.35 -8.95
Q 28.6107421875 -9.571484375 31.7 -8.4
L 31.7 -14.1
M 38 -12.45
L 38 -6.75
Q 40.4453125 -6.78203125 42.8 -7.9 43.6087890625 -8.2921875 44.4 -8.55
L 44.4 -14.25
Q 43.6087890625 -13.9921875 42.8 -13.6 40.4453125 -12.48203125 38 -12.45 Z"/>
</g>
</g>
</g>
</g>
</svg>
