
<svg xmlns="http://www.w3.org/2000/svg" version="1.1" xmlns:xlink="http://www.w3.org/1999/xlink" preserveAspectRatio="none" x="0px" y="0px" width="25px" height="25px" viewBox="0 0 25 25">
<defs/>

<g id="MergedLayer_2">
<g>
<g>
<g>
<path fill="#000000" stroke="none" d="
M 48.05 -7.6
L 46.05 -6.5
Q 45.361328125 -6.1556640625 44.4 -6.2
L 44.4 -0.05
Q 46.2333984375 -0.251953125 48.05 -1.15 49.3 -1.75 50.5 -2.05
L 50.5 -8.6
Q 49.28671875 -8.1984375 48.05 -7.6
M 48.05 -13.3
Q 49.2865234375 -13.9189453125 50.5 -14.3
L 50.5 -20
Q 49.3 -19.65 48.1 -19
L 48.1 -19.05 46.1 -17.95
Q 45.3958984375 -17.5978515625 44.4 -17.65
L 44.4 -11.9
Q 45.361328125 -11.8556640625 46.05 -12.2
L 48.05 -13.3
M 38 -8.65
Q 34.99921875 -9.6408203125 31.7 -8.45
L 31.7 -1.45
Q 34.7884765625 -2.5349609375 38 -1.45
L 38 -8.65
M 38 -20.05
Q 34.989453125 -21.0439453125 31.7 -19.8
L 31.7 -14.15
Q 34.99921875 -15.3365234375 38 -14.35
L 38 -20.05
M 20.2 -8.05
Q 19.578515625 -8.3373046875 18.95 -8.55
L 18.95 -1.8
Q 19.9 -1.480859375 20.85 -1.05 23.1716796875 0.23984375 25.35 0.4
L 25.35 -6.8
Q 22.8232421875 -6.82421875 20.2 -8.05
M 18.95 -14.25
Q 15.834765625 -15.3044921875 12.55 -14.55
L 12.55 -8.85
Q 15.834765625 -9.6064453125 18.95 -8.55
L 18.95 -14.25
M 20.2 -19.4
Q 19.5796875 -19.6857421875 18.95 -19.9
L 18.95 -14.25
Q 19.5787109375 -14.0373046875 20.2 -13.75 22.8232421875 -12.52421875 25.35 -12.5
L 25.35 -18.15
Q 22.8283203125 -18.183203125 20.2 -19.4
M 39.75 -13.55
Q 38.8880859375 -14.041015625 38 -14.35
L 38 -8.65
Q 38.88828125 -8.341015625 39.75 -7.85 42.56953125 -6.3091796875 44.4 -6.2
L 44.4 -11.9
Q 42.56953125 -12.0091796875 39.75 -13.55
M 31.7 -14.15
Q 31.105078125 -13.893359375 30.5 -13.6 27.976953125 -12.4021484375 25.35 -12.5
L 25.35 -6.8
Q 27.976953125 -6.7021484375 30.5 -7.9 31.1048828125 -8.1931640625 31.7 -8.45
L 31.7 -14.15 Z"/>
</g>
</g>
</g>
</g>
</svg>
