
<svg xmlns="http://www.w3.org/2000/svg" version="1.1" xmlns:xlink="http://www.w3.org/1999/xlink" preserveAspectRatio="none" x="0px" y="0px" width="25px" height="25px" viewBox="0 0 25 25">
<defs/>

<g id="MergedLayer_2">
<g>
<g>
<g>
<path fill="#000000" stroke="none" d="
M 50.5 -6.95
Q 47.5193359375 -6.392578125 44.4 -7.55
L 44.4 -0.85
Q 47.575390625 0.7484375 50.5 0.2
L 50.5 -6.95
M 50.5 -18.35
Q 47.5205078125 -17.846484375 44.4 -19
L 44.4 -13.25
Q 47.5193359375 -12.092578125 50.5 -12.65
L 50.5 -18.35
M 38 -9.2
Q 35.1177734375 -9.110546875 32.1 -7.6
L 31.7 -7.4 31.7 -0.9
Q 31.900390625 -0.9990234375 32.1 -1.1 35.05 -2.48671875 38 -2.5
L 38 -9.2
M 32.15 -18.95
L 32.15 -19 31.7 -18.75 31.7 -13.1 32.1 -13.3
Q 35.1177734375 -14.810546875 38 -14.9
L 38 -20.6
Q 35.1357421875 -20.4818359375 32.15 -18.95
M 18.95 -9.1
L 18.95 -1.95
Q 20.9693359375 -1.8998046875 23.05 -0.95 24.2048828125 -0.4228515625 25.35 -0.2
L 25.35 -7.1
Q 24.6166015625 -7.4037109375 23.8 -7.85 21.4705078125 -9.17734375 18.95 -9.1
M 18.95 -20.45
L 18.95 -14.8
Q 21.4705078125 -14.87734375 23.8 -13.55 24.6166015625 -13.1037109375 25.35 -12.8
L 25.35 -18.45
Q 24.6166015625 -18.7537109375 23.8 -19.2 21.4861328125 -20.5337890625 18.95 -20.45
M 14.55 -13.6
Q 13.5580078125 -13.1291015625 12.55 -12.85
L 12.55 -7.15
Q 13.5580078125 -7.4291015625 14.55 -7.9 16.818359375 -8.9998046875 18.95 -9.1
L 18.95 -14.8
Q 16.818359375 -14.6998046875 14.55 -13.6
M 38 -14.9
L 38 -9.2
Q 40.631640625 -9.2142578125 43.15 -8.05 43.777734375 -7.756640625 44.4 -7.55
L 44.4 -13.25
Q 43.777734375 -13.456640625 43.15 -13.75 40.631640625 -14.9142578125 38 -14.9
M 25.35 -7.1
Q 28.4798828125 -5.68984375 30.1 -6.5
L 31.7 -7.4 31.7 -13.1 30.1 -12.2
Q 28.4798828125 -11.38984375 25.35 -12.8
L 25.35 -7.1 Z"/>
</g>
</g>
</g>
</g>
</svg>
