
<svg xmlns="http://www.w3.org/2000/svg" version="1.1" xmlns:xlink="http://www.w3.org/1999/xlink" preserveAspectRatio="none" x="0px" y="0px" width="25px" height="25px" viewBox="0 0 25 25">
<defs/>

<g id="MergedLayer_2">
<g>
<g>
<g>
<path fill="#000000" stroke="none" d="
M 48.85 -7.85
Q 46.705859375 -9.0716796875 44.4 -9.1
L 44.4 -2
Q 46.2412109375 -1.9119140625 48.15 -1.05 49.35 -0.5 50.5 -0.25
L 50.5 -7.05
Q 49.7224609375 -7.3732421875 48.85 -7.85
M 44.4 -14.8
Q 46.705859375 -14.7716796875 48.85 -13.55 49.7224609375 -13.0732421875 50.5 -12.75
L 50.5 -18.5
Q 49.75 -18.85 48.9 -19.3 46.7326171875 -20.5349609375 44.4 -20.55
L 44.4 -14.8
M 38 -7.3
Q 34.925390625 -6.3083984375 31.7 -7.2
L 31.7 -0.3
Q 34.9654296875 0.968359375 38 -0.15
L 38 -7.3
M 31.7 -12.9
Q 34.925390625 -12.008203125 38 -13
L 38 -18.65
Q 34.925390625 -17.7 31.7 -18.55
L 31.7 -12.9
M 18.95 -7.9
L 18.95 -1.35
Q 22.1349609375 -2.68984375 25.35 -2.4
L 25.35 -9.15
Q 22.232421875 -9.3833984375 18.95 -7.9
M 18.95 -19.25
L 18.95 -13.6
Q 22.232421875 -15.0833984375 25.35 -14.85
L 25.35 -20.5
Q 22.223828125 -20.72890625 18.95 -19.25
M 18.95 -13.6
Q 18.6009765625 -13.451953125 18.25 -13.3
L 16.25 -12.2
Q 14.913671875 -11.5318359375 12.55 -12.35
L 12.55 -6.7
Q 14.913671875 -5.8318359375 16.25 -6.5
L 18.25 -7.6
Q 18.6009765625 -7.751953125 18.95 -7.9
L 18.95 -13.6
M 29.3 -13.75
Q 27.359375 -14.6470703125 25.35 -14.85
L 25.35 -9.15
Q 27.359375 -8.9470703125 29.3 -8.05 30.51015625 -7.484375 31.7 -7.2
L 31.7 -12.9
Q 30.5103515625 -13.184375 29.3 -13.75
M 39.6 -13.6
Q 38.8052734375 -13.22265625 38 -13
L 38 -7.3
Q 38.8052734375 -7.52265625 39.6 -7.9 42.081640625 -9.1033203125 44.4 -9.1
L 44.4 -14.8
Q 42.081640625 -14.8033203125 39.6 -13.6 Z"/>
</g>
</g>
</g>
</g>
</svg>
