
<svg xmlns="http://www.w3.org/2000/svg" version="1.1" xmlns:xlink="http://www.w3.org/1999/xlink" preserveAspectRatio="none" x="0px" y="0px" width="25px" height="25px" viewBox="0 0 25 25">
<defs/>

<g id="MergedLayer_2">
<g>
<g>
<g>
<path fill="#000000" stroke="none" d="
M 46 -7.9
Q 45.20546875 -7.52265625 44.4 -7.3
L 44.4 -0.2
Q 45.0318359375 -0.408984375 45.65 -0.75 48.05 -2.1 50.5 -2
L 50.5 -9.1
Q 48.3216796875 -9.0255859375 46 -7.9
M 44.4 -13
Q 45.20546875 -13.22265625 46 -13.6 48.3216796875 -14.7255859375 50.5 -14.8
L 50.5 -20.5
Q 48.35 -20.45 46.05 -19.35 45.229296875 -18.9560546875 44.4 -18.7
L 44.4 -13
M 38 -7.2
Q 36.859375 -7.508203125 35.7 -8.05 33.73515625 -8.958203125 31.7 -9.15
L 31.7 -2.4
Q 34.0041015625 -2.188671875 36.3 -1.1 37.159765625 -0.6271484375 38 -0.3
L 38 -7.2
M 25.35 -7.9
Q 25.0009765625 -7.751953125 24.65 -7.6
L 22.65 -6.5
Q 21.313671875 -5.8318359375 18.95 -6.65
L 18.95 0
Q 21.8302734375 0.344140625 24.65 -1.05 25.000390625 -1.217578125 25.35 -1.4
L 25.35 -7.9
M 35.7 -13.75
Q 36.859375 -13.208203125 38 -12.9
L 38 -18.6
Q 36.8818359375 -18.916015625 35.75 -19.45 33.7529296875 -20.3646484375 31.7 -20.55
L 31.7 -14.85
Q 33.7345703125 -14.65859375 35.7 -13.75
M 18.95 -18
L 18.95 -12.35
Q 21.313671875 -11.5318359375 22.65 -12.2
L 24.65 -13.3
Q 25.0009765625 -13.47578125 25.35 -13.65
L 25.35 -19.25
Q 25.00078125 -19.0830078125 24.65 -18.9
L 24.65 -18.95 22.65 -17.85
Q 21.334765625 -17.175390625 18.95 -18
M 16.35 -13.55
Q 14.509765625 -14.5986328125 12.55 -14.75
L 12.55 -9.05
Q 14.5095703125 -8.8986328125 16.35 -7.85 17.7767578125 -7.0703125 18.95 -6.65
L 18.95 -12.35
Q 17.7767578125 -12.7703125 16.35 -13.55
M 31.7 -14.85
Q 28.6046875 -15.0853515625 25.35 -13.65
L 25.35 -7.9
Q 28.6060546875 -9.371484375 31.7 -9.15
L 31.7 -14.85
M 38 -12.9
L 38 -7.2
Q 41.277734375 -6.29296875 44.4 -7.3
L 44.4 -13
Q 41.277734375 -11.99296875 38 -12.9 Z"/>
</g>
</g>
</g>
</g>
</svg>
